<svg xmlns="http://www.w3.org/2000/svg" width="70" height="65" viewBox="0 0 70 65">
  <g id="Group_958" data-name="Group 958" transform="translate(-195 555)">
    <g id="Group_957" data-name="Group 957" transform="translate(-2 -2)">
      <g id="Group_203" data-name="Group 203" transform="translate(202 -545)">
        <path id="Path_42" data-name="Path 42" d="M206.333,69.529c18.327-16.049,26.3-16.049,44.631,0" transform="translate(-198.369 -52.482)" fill="#fff"/>
        <path id="Path_43" data-name="Path 43" d="M202.736,84.635c-17.567,42.62,62.2,42.62,44.631,0" transform="translate(-194.772 -68.026)" fill="#fff"/>
        <g id="Group_125" data-name="Group 125">
          <path id="Path_44" data-name="Path 44" d="M187.112,54.717a7.983,7.983,0,1,1,7.964,8.524A8.258,8.258,0,0,1,187.112,54.717Z" transform="translate(-187.112 -46.193)" fill="#fff"/>
          <path id="Path_45" data-name="Path 45" d="M294.826,54.717a7.983,7.983,0,1,1,7.964,8.524A8.259,8.259,0,0,1,294.826,54.717Z" transform="translate(-250.195 -46.193)" fill="#fff"/>
          <path id="Path_46" data-name="Path 46" d="M206.333,69.309c0,5.157,22.316-16.349,22.316-16.771,0,.422-22.316-16.43-22.316,11.657" transform="translate(-198.369 -47.146)" fill="#fff"/>
          <path id="Path_47" data-name="Path 47" d="M282.506,69.309c0,5.157-22.316-16.349-22.316-16.771,0,.422,22.316-16.43,22.316,11.657" transform="translate(-229.91 -47.146)" fill="#fff"/>
        </g>
      </g>
      <path id="Path_52" data-name="Path 52" d="M229.436,96.8c0-1.412,2.14-2.557,4.779-2.557s4.778,1.145,4.778,2.557-2.139,2.557-4.778,2.557S229.436,98.215,229.436,96.8Z" transform="translate(-9.899 -617.936)" fill="#fff" stroke="#000" stroke-miterlimit="10" stroke-width="1"/>
      <path id="Path_53" data-name="Path 53" d="M267.878,96.8c0-1.412,2.14-2.557,4.779-2.557s4.778,1.145,4.778,2.557-2.139,2.557-4.778,2.557S267.878,98.215,267.878,96.8Z" transform="translate(-32.413 -617.936)" fill="#fff" stroke="#000" stroke-miterlimit="10" stroke-width="1"/>
      <path id="Path_54" data-name="Path 54" d="M235.2,96.8a2.395,2.395,0,1,1,2.389,2.557A2.477,2.477,0,0,1,235.2,96.8Z" transform="translate(-13.276 -617.936)" stroke="#000" stroke-miterlimit="10" stroke-width="1"/>
      <path id="Path_55" data-name="Path 55" d="M273.645,96.8a2.395,2.395,0,1,1,2.389,2.557A2.477,2.477,0,0,1,273.645,96.8Z" transform="translate(-35.79 -617.936)" stroke="#000" stroke-miterlimit="10" stroke-width="1"/>
      <path id="Path_772" data-name="Path 772" d="M219.787,117.784A4.318,4.318,0,1,1,224.1,122.1,4.318,4.318,0,0,1,219.787,117.784Z" transform="translate(-4.27 -632.357)" fill="#c9c9c9" opacity="0.5"/>
      <path id="Path_773" data-name="Path 773" d="M281.371,117.784a4.318,4.318,0,1,1,4.318,4.318A4.318,4.318,0,0,1,281.371,117.784Z" transform="translate(-40.379 -632.357)" fill="#c9c9c9" opacity="0.5"/>
    </g>
    <rect id="Rectangle_225" data-name="Rectangle 225" width="70" height="65" transform="translate(195 -555)" fill="none"/>
  </g>
</svg>
