<svg xmlns="http://www.w3.org/2000/svg" width="70" height="65" viewBox="0 0 70 65">
  <g id="Group_1061" data-name="Group 1061" transform="translate(-1138 368)">
    <g id="Group_1055" data-name="Group 1055" transform="translate(0 212)">
      <rect id="Rectangle_225" data-name="Rectangle 225" width="70" height="65" transform="translate(1138 -580)" fill="none"/>
      <path id="Path_42" data-name="Path 42" d="M206.333,69.529c18.326-16.048,26.3-16.048,44.629,0" transform="translate(944.631 -624.482)" fill="#fff"/>
      <path id="Path_43" data-name="Path 43" d="M202.736,84.635c-17.566,42.617,62.2,42.617,44.629,0" transform="translate(948.228 -640.026)" fill="#fff"/>
      <path id="Path_44" data-name="Path 44" d="M187.112,54.716a7.982,7.982,0,1,1,7.964,8.523A8.258,8.258,0,0,1,187.112,54.716Z" transform="translate(955.888 -618.193)" fill="#fff"/>
      <path id="Path_45" data-name="Path 45" d="M294.826,54.716a7.982,7.982,0,1,1,7.964,8.523A8.258,8.258,0,0,1,294.826,54.716Z" transform="translate(892.803 -618.193)" fill="#fff"/>
      <path id="Path_46" data-name="Path 46" d="M206.333,69.307c0,5.156,22.314-16.348,22.314-16.77,0,.422-22.314-16.429-22.314,11.656" transform="translate(944.631 -619.146)" fill="#fff"/>
      <path id="Path_47" data-name="Path 47" d="M282.5,69.307c0,5.156-22.314-16.348-22.314-16.77,0,.422,22.314-16.429,22.314,11.656" transform="translate(913.088 -619.146)" fill="#fff"/>
      <g id="Group_1048" data-name="Group 1048" transform="translate(-0.516)">
        <path id="Path_772" data-name="Path 772" d="M219.787,117.784A4.317,4.317,0,1,1,224.1,122.1,4.317,4.317,0,0,1,219.787,117.784Z" transform="translate(936.729 -659.359)" fill="#c9c9c9" opacity="0.5"/>
        <path id="Path_773" data-name="Path 773" d="M281.371,117.784a4.317,4.317,0,1,1,4.318,4.318A4.317,4.317,0,0,1,281.371,117.784Z" transform="translate(900.619 -659.359)" fill="#c9c9c9" opacity="0.5"/>
      </g>
      <path id="Path_790" data-name="Path 790" d="M258.984,120.759c.857-4.285-7.607-4.285-6.75,0" transform="translate(917.327 -657.884)" fill="none" stroke="#000" stroke-miterlimit="10" stroke-width="1" opacity="0.5"/>
    </g>
    <g id="Group_1058" data-name="Group 1058" transform="translate(1139.822 -376)">
      <path id="Path_260" data-name="Path 260" d="M256.8,132.917c3.651,3.991-16.4,3.991-12.75,0" transform="translate(-217.421 -104.042)" fill="none" stroke="#000" stroke-miterlimit="10" stroke-width="1"/>
      <g id="Group_252" data-name="Group 252" transform="translate(37.5 34.5) rotate(90)">
        <g id="Group_24" data-name="Group 24">
          <line id="Line_1" data-name="Line 1" x1="4.5" transform="translate(5.625 4.875)" fill="none" stroke="#000" stroke-linecap="round" stroke-width="1"/>
          <g id="Polygon_1" data-name="Polygon 1" transform="translate(0 9) rotate(-90)">
            <path d="M 7 5.499996662139893 L 2 5.499996662139893 C 1.80649995803833 5.499996662139893 1.639320015907288 5.396676540374756 1.552780032157898 5.223606586456299 C 1.466249942779541 5.050536632537842 1.48389995098114 4.854796886444092 1.600000023841858 4.699996471405029 L 4.099999904632568 1.366666674613953 C 4.195330142974854 1.239566683769226 4.341119766235352 1.166666626930237 4.5 1.166666626930237 C 4.658880233764648 1.166666626930237 4.804669857025146 1.239566683769226 4.900000095367432 1.366666674613953 L 7.400000095367432 4.699996471405029 C 7.51609992980957 4.854796886444092 7.533750057220459 5.050536632537842 7.447219848632812 5.223606586456299 C 7.360680103302002 5.396676540374756 7.19350004196167 5.499996662139893 7 5.499996662139893 Z" stroke="none"/>
            <path d="M 4.5 1.666666507720947 L 2.000000476837158 4.999996185302734 C 2.000000476837158 4.999996185302734 2.000000476837158 4.999996185302734 2 4.999996662139893 L 6.999999046325684 4.999996662139893 C 6.999999523162842 4.999996185302734 6.999999523162842 4.999996185302734 7 4.999996662139893 L 4.502230167388916 1.666896820068359 C 4.502009868621826 1.666826725006104 4.50117015838623 1.666666507720947 4.5 1.666666507720947 M 4.5 0.6666693687438965 C 4.800000190734863 0.6666693687438965 5.099999904632568 0.8000016212463379 5.300000190734863 1.066666603088379 L 7.800000190734863 4.399996757507324 C 8.294429779052734 5.059236526489258 7.824049949645996 5.999996662139893 7 5.999996662139893 L 2 5.999996662139893 C 1.175950050354004 5.999996662139893 0.7055702209472656 5.059236526489258 1.199999809265137 4.399996757507324 L 3.699999809265137 1.066666603088379 C 3.900000095367432 0.8000016212463379 4.199999809265137 0.6666693687438965 4.5 0.6666693687438965 Z" stroke="none"/>
          </g>
        </g>
      </g>
    </g>
  </g>
</svg>
