<svg xmlns="http://www.w3.org/2000/svg" width="70" height="65" viewBox="0 0 70 65">
  <g id="Group_1060" data-name="Group 1060" transform="translate(-1215 368)">
    <g id="Group_1056" data-name="Group 1056" transform="translate(77 212)">
      <rect id="Rectangle_225" data-name="Rectangle 225" width="70" height="65" transform="translate(1138 -580)" fill="none"/>
      <path id="Path_42" data-name="Path 42" d="M206.333,69.529c18.326-16.048,26.3-16.048,44.629,0" transform="translate(944.631 -624.482)" fill="#fff"/>
      <path id="Path_43" data-name="Path 43" d="M202.736,84.635c-17.566,42.617,62.2,42.617,44.629,0" transform="translate(948.228 -640.026)" fill="#fff"/>
      <path id="Path_44" data-name="Path 44" d="M187.112,54.716a7.982,7.982,0,1,1,7.964,8.523A8.258,8.258,0,0,1,187.112,54.716Z" transform="translate(955.888 -618.193)" fill="#fff"/>
      <path id="Path_45" data-name="Path 45" d="M294.826,54.716a7.982,7.982,0,1,1,7.964,8.523A8.258,8.258,0,0,1,294.826,54.716Z" transform="translate(892.803 -618.193)" fill="#fff"/>
      <path id="Path_46" data-name="Path 46" d="M206.333,69.307c0,5.156,22.314-16.348,22.314-16.77,0,.422-22.314-16.429-22.314,11.656" transform="translate(944.631 -619.146)" fill="#fff"/>
      <path id="Path_47" data-name="Path 47" d="M282.5,69.307c0,5.156-22.314-16.348-22.314-16.77,0,.422,22.314-16.429,22.314,11.656" transform="translate(913.088 -619.146)" fill="#fff"/>
      <g id="Group_1048" data-name="Group 1048" transform="translate(-0.516)">
        <path id="Path_772" data-name="Path 772" d="M219.787,117.784A4.317,4.317,0,1,1,224.1,122.1,4.317,4.317,0,0,1,219.787,117.784Z" transform="translate(936.729 -659.359)" fill="#c9c9c9" opacity="0.5"/>
        <path id="Path_773" data-name="Path 773" d="M281.371,117.784a4.317,4.317,0,1,1,4.318,4.318A4.317,4.317,0,0,1,281.371,117.784Z" transform="translate(900.619 -659.359)" fill="#c9c9c9" opacity="0.5"/>
      </g>
      <path id="Path_790" data-name="Path 790" d="M258.984,120.759c.857-4.285-7.607-4.285-6.75,0" transform="translate(917.327 -657.884)" fill="none" stroke="#000" stroke-miterlimit="10" stroke-width="1" opacity="0.5"/>
    </g>
    <g id="Group_1059" data-name="Group 1059" transform="translate(1243.178 -331.125)">
      <path id="Path_260" data-name="Path 260" d="M256.8,132.917c3.651,3.992-16.4,3.992-12.75,0" transform="translate(-243.599 -120.161)" fill="none" stroke="#000" stroke-miterlimit="10" stroke-width="1"/>
      <g id="Group_252" data-name="Group 252" transform="translate(2.322 10.125) rotate(-90)">
        <g id="Group_24" data-name="Group 24">
          <line id="Line_1" data-name="Line 1" x1="4.5" transform="translate(5.625 4.125)" fill="none" stroke="#000" stroke-linecap="round" stroke-width="1"/>
          <g id="Polygon_1" data-name="Polygon 1" transform="translate(0 9) rotate(-90)">
            <path d="M 7.000029563903809 5.500004291534424 L 2.000009536743164 5.500004291534424 C 1.806509494781494 5.500004291534424 1.639329552650452 5.396684646606445 1.552799582481384 5.223614692687988 C 1.466259598731995 5.050534725189209 1.483909606933594 4.854794502258301 1.600009560585022 4.699994564056396 L 4.100019454956055 1.366664528846741 C 4.19534969329834 1.239554524421692 4.341139316558838 1.166664481163025 4.500019550323486 1.166664481163025 C 4.658899784088135 1.166664481163025 4.804689407348633 1.239554524421692 4.900019645690918 1.366664528846741 L 7.40002965927124 4.699994564056396 C 7.516129493713379 4.854794502258301 7.533779621124268 5.050534725189209 7.447239398956299 5.223614692687988 C 7.360709667205811 5.396684646606445 7.193529605865479 5.500004291534424 7.000029563903809 5.500004291534424 Z" stroke="none"/>
            <path d="M 4.500019550323486 1.666654586791992 L 4.500019550323486 1.666664600372314 L 2.000009536743164 4.999994277954102 C 2.000009059906006 4.999995231628418 2.000008583068848 4.999995708465576 2.000008106231689 4.999996662139893 C 2.000009536743164 4.999999046325684 2.00001049041748 5.000001907348633 2.000009536743164 5.000004768371582 L 7.000026702880859 5.000004768371582 C 7.000028610229492 5.000001907348633 7.000029563903809 4.999999046325684 7.000030994415283 4.999996662139893 C 7.000030517578125 4.999995708465576 7.000030040740967 4.999995231628418 7.000029563903809 4.999994277954102 L 4.502229690551758 1.666884422302246 C 4.502009391784668 1.66681432723999 4.501189708709717 1.666654586791992 4.500019550323486 1.666654586791992 M 4.500019550323486 0.6666593551635742 C 4.80001974105835 0.6666593551635742 5.100019454956055 0.7999944686889648 5.300019264221191 1.066664695739746 L 7.800029754638672 4.399994850158691 C 8.294459342956543 5.059234619140625 7.824079513549805 6.000004768371582 7.000029563903809 6.000004768371582 L 2.000009536743164 6.000004768371582 C 1.175959587097168 6.000004768371582 0.7055797576904297 5.059234619140625 1.200009346008301 4.399994850158691 L 3.700019359588623 1.066664695739746 C 3.900019645690918 0.7999944686889648 4.200019359588623 0.6666593551635742 4.500019550323486 0.6666593551635742 Z" stroke="none"/>
          </g>
        </g>
      </g>
    </g>
  </g>
</svg>
