<svg xmlns="http://www.w3.org/2000/svg" width="70" height="65" viewBox="0 0 70 65">
  <g id="Group_1000" data-name="Group 1000" transform="translate(-631 555)">
    <g id="Group_989" data-name="Group 989" transform="translate(636 -547)">
      <path id="Path_42" data-name="Path 42" d="M206.333,69.529c18.327-16.049,26.3-16.049,44.631,0" transform="translate(-198.369 -52.482)" fill="#fff"/>
      <path id="Path_43" data-name="Path 43" d="M202.736,84.635c-17.567,42.62,62.2,42.62,44.631,0" transform="translate(-194.772 -68.026)" fill="#fff"/>
      <g id="Group_125" data-name="Group 125">
        <path id="Path_44" data-name="Path 44" d="M187.112,54.717a7.983,7.983,0,1,1,7.964,8.524A8.258,8.258,0,0,1,187.112,54.717Z" transform="translate(-187.112 -46.193)" fill="#fff"/>
        <path id="Path_45" data-name="Path 45" d="M294.826,54.717a7.983,7.983,0,1,1,7.964,8.524A8.259,8.259,0,0,1,294.826,54.717Z" transform="translate(-250.195 -46.193)" fill="#fff"/>
        <path id="Path_46" data-name="Path 46" d="M206.333,69.309c0,5.157,22.316-16.349,22.316-16.771,0,.422-22.316-16.43-22.316,11.657" transform="translate(-198.369 -47.146)" fill="#fff"/>
        <path id="Path_47" data-name="Path 47" d="M282.506,69.309c0,5.157-22.316-16.349-22.316-16.771,0,.422,22.316-16.43,22.316,11.657" transform="translate(-229.91 -47.146)" fill="#fff"/>
      </g>
    </g>
    <g id="Group_993" data-name="Group 993" transform="translate(-1 4)">
      <path id="Path_778" data-name="Path 778" d="M228.422,117.784A4.318,4.318,0,1,0,224.1,122.1,4.318,4.318,0,0,0,228.422,117.784Z" transform="translate(421.213 -632.357)"/>
      <path id="Path_779" data-name="Path 779" d="M290.006,117.784a4.318,4.318,0,1,0-4.318,4.318A4.318,4.318,0,0,0,290.006,117.784Z" transform="translate(402.723 -632.357)"/>
    </g>
    <rect id="Rectangle_230" data-name="Rectangle 230" width="70" height="65" transform="translate(631 -555)" fill="none"/>
    <g id="Group_992" data-name="Group 992" transform="translate(-0.699 4)">
      <g id="Group_990" data-name="Group 990" transform="translate(671.992 -520.507)">
        <line id="Line_1" data-name="Line 1" x2="4.963" transform="translate(0 5.345)" fill="none" stroke="#000" stroke-linecap="round" stroke-width="2"/>
        <g id="Polygon_1" data-name="Polygon 1" transform="translate(11.453) rotate(90)">
          <path d="M 7.511303901672363 4.990225315093994 L 3.178484678268433 4.990225315093994 L 5.344895362854004 2.359582424163818 L 7.511303901672363 4.990225315093994 Z" stroke="none"/>
          <path d="M 5.344894886016846 0.5730552673339844 C 5.630857467651367 0.5730552673339844 5.916820049285889 0.6944851875305176 6.116825103759766 0.937345027923584 L 9.342735290527344 4.854525089263916 C 9.879984855651855 5.506895065307617 9.415925025939941 6.490225315093994 8.570804595947266 6.490225315093994 L 2.118985176086426 6.490225315093994 C 1.27386474609375 6.490225315093994 0.8098049163818359 5.506895065307617 1.347054481506348 4.854525089263916 L 4.572964668273926 0.937345027923584 C 4.772969722747803 0.6944851875305176 5.058932304382324 0.5730552673339844 5.344894886016846 0.5730552673339844 Z" stroke="none"/>
        </g>
      </g>
      <g id="Group_991" data-name="Group 991" transform="translate(649.699 -520.507)">
        <line id="Line_1-2" data-name="Line 1" x1="4.963" transform="translate(6.49 5.345)" fill="none" stroke="#000" stroke-linecap="round" stroke-width="2"/>
        <g id="Polygon_1-2" data-name="Polygon 1" transform="translate(0 10.69) rotate(-90)">
          <path d="M 7.511342525482178 4.990234375 L 3.178481101989746 4.990234375 L 5.344905853271484 2.359575033187866 L 7.511342525482178 4.990234375 Z" stroke="none"/>
          <path d="M 5.34490966796875 0.5730466842651367 C 5.630872249603271 0.5730466842651367 5.916834831237793 0.6944794654846191 6.11683988571167 0.9373445510864258 L 9.34276008605957 4.854524612426758 C 9.880009651184082 5.506894111633301 9.415949821472168 6.490234375 8.570829391479492 6.490234375 L 2.118989944458008 6.490234375 C 1.273869514465332 6.490234375 0.809809684753418 5.506894111633301 1.34705924987793 4.854524612426758 L 4.57297945022583 0.9373445510864258 C 4.772984504699707 0.6944794654846191 5.058947086334229 0.5730466842651367 5.34490966796875 0.5730466842651367 Z" stroke="none"/>
        </g>
      </g>
    </g>
    <g id="Group_998" data-name="Group 998" transform="translate(434.463 -4)" opacity="0.25">
      <path id="Path_52" data-name="Path 52" d="M229.436,96.8c0-1.412,2.14-2.557,4.779-2.557s4.778,1.145,4.778,2.557-2.139,2.557-4.778,2.557S229.436,98.215,229.436,96.8Z" transform="translate(-9.899 -617.936)" fill="#fff" stroke="#000" stroke-miterlimit="10" stroke-width="1"/>
      <path id="Path_53" data-name="Path 53" d="M267.878,96.8c0-1.412,2.14-2.557,4.779-2.557s4.778,1.145,4.778,2.557-2.139,2.557-4.778,2.557S267.878,98.215,267.878,96.8Z" transform="translate(-32.413 -617.936)" fill="#fff" stroke="#000" stroke-miterlimit="10" stroke-width="1"/>
      <path id="Path_54" data-name="Path 54" d="M235.2,96.8a2.395,2.395,0,1,1,2.389,2.557A2.477,2.477,0,0,1,235.2,96.8Z" transform="translate(-13.276 -617.936)" stroke="#000" stroke-miterlimit="10" stroke-width="1"/>
      <path id="Path_55" data-name="Path 55" d="M273.645,96.8a2.395,2.395,0,1,1,2.389,2.557A2.477,2.477,0,0,1,273.645,96.8Z" transform="translate(-35.79 -617.936)" stroke="#000" stroke-miterlimit="10" stroke-width="1"/>
    </g>
  </g>
</svg>
