<svg xmlns="http://www.w3.org/2000/svg" width="45" height="35" viewBox="0 0 45 35">
  <g id="Group_950" data-name="Group 950" transform="translate(114 -183)">
    <rect id="Rectangle_231" data-name="Rectangle 231" width="5" height="5" rx="2.5" transform="translate(-114 183)" fill="#393722"/>
    <rect id="Rectangle_231-2" data-name="Rectangle 231" width="4" height="4" rx="2" transform="translate(-104 183)" fill="#fffffe"/>
    <rect id="Rectangle_231-3" data-name="Rectangle 231" width="4" height="4" rx="2" transform="translate(-94 183)" fill="#39b5c2"/>
    <rect id="Rectangle_231-4" data-name="Rectangle 231" width="5" height="5" rx="2.5" transform="translate(-84 183)" fill="#393722"/>
    <rect id="Rectangle_231-5" data-name="Rectangle 231" width="4" height="4" rx="2" transform="translate(-74 183)" fill="#39b5c2"/>
    <rect id="Rectangle_231-6" data-name="Rectangle 231" width="4" height="4" rx="2" transform="translate(-114 193)" fill="#fffffe"/>
    <rect id="Rectangle_231-7" data-name="Rectangle 231" width="5" height="5" rx="2.5" transform="translate(-104 193)" fill="#393722"/>
    <rect id="Rectangle_231-8" data-name="Rectangle 231" width="4" height="4" rx="2" transform="translate(-94 193)" fill="#fffffe"/>
    <rect id="Rectangle_231-9" data-name="Rectangle 231" width="4" height="4" rx="2" transform="translate(-84 193)" fill="#39b5c2"/>
    <rect id="Rectangle_231-10" data-name="Rectangle 231" width="5" height="5" rx="2.5" transform="translate(-74 193)" fill="#393722"/>
    <rect id="Rectangle_231-11" data-name="Rectangle 231" width="4" height="4" rx="2" transform="translate(-114 203)" fill="#39b5c2"/>
    <rect id="Rectangle_231-12" data-name="Rectangle 231" width="4" height="4" rx="2" transform="translate(-104 203)" fill="#fffffe"/>
    <rect id="Rectangle_231-13" data-name="Rectangle 231" width="5" height="5" rx="2.5" transform="translate(-94 203)" fill="#393722"/>
    <rect id="Rectangle_231-14" data-name="Rectangle 231" width="4" height="4" rx="2" transform="translate(-84 203)" fill="#fffffe"/>
    <rect id="Rectangle_231-15" data-name="Rectangle 231" width="4" height="4" rx="2" transform="translate(-74 203)" fill="#39b5c2"/>
    <rect id="Rectangle_231-16" data-name="Rectangle 231" width="5" height="5" rx="2.5" transform="translate(-114 213)" fill="#393722"/>
    <rect id="Rectangle_231-17" data-name="Rectangle 231" width="4" height="4" rx="2" transform="translate(-104 213)" fill="#39b5c2"/>
    <rect id="Rectangle_231-18" data-name="Rectangle 231" width="4" height="4" rx="2" transform="translate(-94 213)" fill="#fffffe"/>
    <rect id="Rectangle_231-19" data-name="Rectangle 231" width="5" height="5" rx="2.5" transform="translate(-84 213)" fill="#393722"/>
    <rect id="Rectangle_231-20" data-name="Rectangle 231" width="4" height="4" rx="2" transform="translate(-74 213)" fill="#fffffe"/>
  </g>
</svg>
