<svg xmlns="http://www.w3.org/2000/svg" width="40" height="40" viewBox="0 0 40 40">
  <path id="Path_789" data-name="Path 789" d="M749.966-426.572c-6.273-4.918-7.455-14.128,0-11.123s1.142-5.914,12.394-1.382c6.83,2.751,12.062-1.435,16.036,3.17,3.1,3.6-4.714,6.141-3.554,9.335,1,2.744,3.91,3.109,5.477,5.431,1.771,2.621,1.735,6.718-1.923,6.741-9.053.056-12.2-.885-18.578,5.145s-19.08,13.009-17.932,5.8,13.235-5.946,10.522-10.949-13.17-.57-10.522-5.986A11.485,11.485,0,0,1,749.966-426.572Z" transform="translate(-741.46 440.387)" fill="#fff"/>
</svg>
