<svg xmlns="http://www.w3.org/2000/svg" viewBox="0 0 70 65"><defs><style>.cls-1{fill:#fff;}.cls-1,.cls-2,.cls-3,.cls-4,.cls-5{stroke:#000;stroke-miterlimit:10;stroke-width:2px;}.cls-2{fill:#4fe1ff;}.cls-3{fill:#33cceb;}.cls-4{fill:#1caecc;}.cls-5{fill:#0c8ba5;}.cls-6{fill:none;}</style></defs><g id="Layer_2" data-name="Layer 2"><g id="Layer_1-2" data-name="Layer 1"><path id="Path_252" data-name="Path 252" class="cls-1" d="M60.37,51.5c.42-.66,9-14.73,1.72-28.75C54.45,8,36.71,7.68,34.77,7.68A30.23,30.23,0,0,0,14.71,15,28.57,28.57,0,0,0,6.12,29.07C5.41,31.85,3,41.3,8.65,48.8c1.14,1.5,4.45,5.89,9.5,6.38,7.14.69,9.32-6.64,16.15-6.24S43,57.13,49.76,57.32C54.22,57.45,58,54.22,60.37,51.5Zm-41.3-6.76a5,5,0,1,1,2.8-6.49,5,5,0,0,1-2.8,6.49Z"/><circle id="Ellipse_11" data-name="Ellipse 11" class="cls-2" cx="53.26" cy="39.64" r="4.05"/><circle id="Ellipse_12" data-name="Ellipse 12" class="cls-3" cx="50.12" cy="23.91" r="4.05"/><circle id="Ellipse_13" data-name="Ellipse 13" class="cls-4" cx="34.07" cy="16.99" r="4.05"/><circle id="Ellipse_14" data-name="Ellipse 14" class="cls-5" cx="19.6" cy="23.31" r="4.05"/><rect id="Rectangle_220" data-name="Rectangle 220" class="cls-6" width="70" height="65"/></g></g></svg>