<svg xmlns="http://www.w3.org/2000/svg" width="69.428" height="68.384" viewBox="0 0 69.428 68.384">
  <g id="Group_858" data-name="Group 858" transform="translate(-3684.218 -4985.06) rotate(60)">
    <path id="Path_252" data-name="Path 252" d="M1981.782,573.414c-.318-.606-7.215-13.205-20.974-13.842-14.5-.671-22.448,12.6-23.3,14.071a26.379,26.379,0,0,0-3.211,18.35,24.958,24.958,0,0,0,6.881,12.616c1.788,1.748,7.874,7.7,16.005,6.693,1.63-.2,6.393-.791,8.963-4.393,3.63-5.088-.95-9.933,2.327-14.916,3.3-5.018,9.973-2.985,13.074-8.028C1983.591,580.653,1982.771,576.429,1981.782,573.414Zm-23.122,28.252a4.358,4.358,0,1,1-3.682-4.943A4.358,4.358,0,0,1,1958.661,601.666Z" transform="translate(4247.96 -1296.545)" fill="#fff"/>
    <circle id="Ellipse_11" data-name="Ellipse 11" cx="3.53" cy="3.53" r="3.53" transform="translate(6214.147 -726.465)" fill="#4fe1ff"/>
    <circle id="Ellipse_12" data-name="Ellipse 12" cx="3.53" cy="3.53" r="3.53" transform="translate(6200.895 -730.953)" fill="#33cceb"/>
    <circle id="Ellipse_13" data-name="Ellipse 13" cx="3.53" cy="3.53" r="3.53" transform="translate(6188.668 -721.845)" fill="#1caecc"/>
    <circle id="Ellipse_14" data-name="Ellipse 14" cx="3.53" cy="3.53" r="3.53" transform="translate(6187.131 -708.161)" fill="#0c8ba5"/>
  </g>
</svg>
