<svg xmlns="http://www.w3.org/2000/svg" viewBox="0 0 70 65"><defs><style>.cls-1,.cls-5,.cls-6{fill:none;}.cls-1,.cls-2,.cls-3,.cls-4,.cls-5{stroke:#000;stroke-miterlimit:10;stroke-width:2px;}.cls-2{fill:#60bdbe;}.cls-3{fill:#fff;}.cls-4{fill:#363636;}.cls-5{stroke-linecap:round;}</style></defs><g id="Layer_2" data-name="Layer 2"><g id="Layer_1-2" data-name="Layer 1"><path id="Path_16-2" data-name="Path 16-2" class="cls-1" d="M23.58,44.89c-6.42,7.63,29.26,7.63,22.84,0"/><path id="Path_18" data-name="Path 18" class="cls-2" d="M5,37.27a7.38,7.38,0,0,1,7.16-7.58,7.38,7.38,0,0,1,7.11,7.63,7.37,7.37,0,0,1-7.13,7.57A7.39,7.39,0,0,1,5,37.27Z"/><path id="Path_19" data-name="Path 19" class="cls-2" d="M50.73,37.27a7.15,7.15,0,1,1,14.27,0,7.15,7.15,0,1,1-14.27,0Z"/><path id="Path_20" data-name="Path 20" class="cls-3" d="M12.16,19c0-2.53,3.84-4.58,8.57-4.58s8.56,2,8.56,4.58-3.83,4.58-8.56,4.58S12.16,21.49,12.16,19Z"/><path id="Path_21" data-name="Path 21" class="cls-3" d="M40.71,19c0-2.53,3.83-4.58,8.56-4.58s8.57,2,8.57,4.58S54,23.54,49.27,23.54,40.71,21.49,40.71,19Z"/><path id="Path_22" data-name="Path 22" class="cls-4" d="M17.53,19a3.37,3.37,0,0,1,3.24-3.48A3.35,3.35,0,0,1,24,19a3.36,3.36,0,0,1-3.23,3.48h0A3.35,3.35,0,0,1,17.53,19Z"/><path id="Path_23" data-name="Path 23" class="cls-4" d="M46.07,19a3.26,3.26,0,1,1,3.27,3.44h0A3.35,3.35,0,0,1,46.07,19Z"/><path id="Path_25" data-name="Path 25" class="cls-5" d="M29.29,38.79c-1.43-7.63,12.85-7.63,11.42,0"/><rect id="Rectangle_220" data-name="Rectangle 220" class="cls-6" width="70" height="65"/></g></g></svg>