<svg xmlns="http://www.w3.org/2000/svg" width="70" height="65" viewBox="0 0 70 65">
  <g id="Group_1045" data-name="Group 1045" transform="translate(678 431)">
    <g id="Group_1044" data-name="Group 1044">
      <path id="Path_16-2" d="M23.6,44.9c-6.4,7.6,29.3,7.6,22.8,0" transform="translate(-678 -431)" fill="none" stroke="#000" stroke-miterlimit="10" stroke-width="2"/>
      <path id="Path_20" d="M12.2,19c0-2.5,3.8-4.6,8.6-4.6s8.6,2,8.6,4.6-3.8,4.6-8.6,4.6S12.2,21.5,12.2,19Z" transform="translate(-678 -431)" fill="#fff"/>
      <path id="Path_21" d="M40.7,19c0-2.5,3.8-4.6,8.6-4.6s8.6,2,8.6,4.6-3.8,4.5-8.6,4.5S40.7,21.5,40.7,19Z" transform="translate(-678 -431)" fill="#fff"/>
      <path id="Path_22" d="M17.5,19a3.355,3.355,0,0,1,3.2-3.5A3.355,3.355,0,0,1,23.9,19h0a3.355,3.355,0,0,1-3.2,3.5h0A3.424,3.424,0,0,1,17.5,19Z" transform="translate(-678 -431)" fill="#363636"/>
      <path id="Path_23" d="M46.1,19a3.253,3.253,0,1,1,3.3,3.4h0A3.23,3.23,0,0,1,46.1,19Z" transform="translate(-678 -431)" fill="#363636"/>
      <path id="Path_25" d="M29.3,38.8c-1.4-7.6,12.8-7.6,11.4,0" transform="translate(-678 -431)" fill="none" stroke="#000" stroke-linecap="round" stroke-miterlimit="10" stroke-width="2"/>
      <rect id="Rectangle_220" width="70" height="65" transform="translate(-678 -431)" fill="none"/>
    </g>
  </g>
</svg>
