<?xml version="1.0" encoding="utf-8"?>
<!-- Generator: Adobe Illustrator 24.3.0, SVG Export Plug-In . SVG Version: 6.00 Build 0)  -->
<svg version="1.1" id="Layer_1" xmlns="http://www.w3.org/2000/svg" xmlns:xlink="http://www.w3.org/1999/xlink" x="0px" y="0px"
	 viewBox="0 0 70 65" style="enable-background:new 0 0 70 65;" xml:space="preserve">
<style type="text/css">
	.st0{fill:none;stroke:#000000;stroke-width:2;stroke-miterlimit:10;}
	.st1{fill:#FF7F83;}
	.st2{fill:#FFFFFF;}
	.st3{fill:#363636;}
	.st4{fill:none;stroke:#000000;stroke-width:2;stroke-linecap:round;stroke-miterlimit:10;}
	.st5{fill:none;}
</style>
<path id="Path_16-2" class="st0" d="M23.6,44.9c-6.4,7.6,29.3,7.6,22.8,0"/>
<path id="Path_18" class="st1" d="M5,37.3c-0.1-4.1,3.1-7.5,7.2-7.6c4.1,0.1,7.3,3.6,7.1,7.6c0.1,4.1-3.1,7.4-7.1,7.6
	C8.1,44.8,4.9,41.3,5,37.3z"/>
<path id="Path_19" class="st1" d="M50.7,37.3c-0.3-3.9,2.7-7.3,6.7-7.6s7.3,2.7,7.6,6.7c0,0.3,0,0.6,0,0.9c0.3,3.9-2.7,7.3-6.7,7.6
	s-7.3-2.7-7.6-6.7C50.7,37.9,50.7,37.6,50.7,37.3z"/>
<path id="Path_20" class="st2" d="M12.2,19c0-2.5,3.8-4.6,8.6-4.6s8.6,2,8.6,4.6s-3.8,4.6-8.6,4.6S12.2,21.5,12.2,19z"/>
<path id="Path_21" class="st2" d="M40.7,19c0-2.5,3.8-4.6,8.6-4.6s8.6,2,8.6,4.6s-3.8,4.5-8.6,4.5S40.7,21.5,40.7,19z"/>
<path id="Path_22" class="st3" d="M17.5,19c-0.1-1.9,1.4-3.4,3.2-3.5c1.8,0.1,3.3,1.6,3.2,3.5l0,0c0.1,1.9-1.4,3.4-3.2,3.5l0,0
	C18.9,22.4,17.5,20.9,17.5,19L17.5,19z"/>
<path id="Path_23" class="st3" d="M46.1,19c0.1-1.8,1.6-3.2,3.4-3.1c1.8,0.1,3.2,1.6,3.1,3.4c-0.1,1.7-1.5,3.1-3.2,3.1l0,0
	C47.5,22.4,46,20.9,46.1,19L46.1,19z"/>
<path id="Path_25" class="st4" d="M29.3,38.8c-1.4-7.6,12.8-7.6,11.4,0"/>
<rect id="Rectangle_220" class="st5" width="70" height="65"/>
</svg>
