<svg xmlns="http://www.w3.org/2000/svg" width="63.896" height="37.229" viewBox="0 0 63.896 37.229">
  <g id="Group_860" data-name="Group 860" transform="translate(-203 -305)">
    <path id="Path_16" data-name="Path 16" d="M389.27,245.694c-6.839,7.628,31.158,7.628,24.318,0" transform="translate(-166.481 89.815)" fill="rgba(0,0,0,0)" stroke="#1a1917" stroke-linecap="round" stroke-miterlimit="10" stroke-width="2"/>
    <g id="Group_4" data-name="Group 4" transform="translate(203 305)">
      <path id="Path_18" data-name="Path 18" d="M364.463,234.1a7.6,7.6,0,1,1,7.6,7.627A7.614,7.614,0,0,1,364.463,234.1Z" transform="translate(-364.463 -211.219)" fill="#60bdbe"/>
      <path id="Path_19" data-name="Path 19" d="M426.047,234.1a7.6,7.6,0,1,1,7.6,7.627A7.614,7.614,0,0,1,426.047,234.1Z" transform="translate(-377.35 -211.219)" fill="#60bdbe"/>
      <path id="Path_20" data-name="Path 20" d="M374.112,211.828c0-2.527,4.083-4.576,9.12-4.576s9.12,2.049,9.12,4.576-4.083,4.577-9.12,4.577S374.112,214.356,374.112,211.828Z" transform="translate(-366.482 -207.252)" fill="#fff"/>
      <path id="Path_21" data-name="Path 21" d="M412.554,211.828c0-2.527,4.083-4.576,9.12-4.576s9.12,2.049,9.12,4.576-4.083,4.577-9.12,4.577S412.554,214.356,412.554,211.828Z" transform="translate(-374.526 -207.252)" fill="#fff"/>
      <path id="Path_22" data-name="Path 22" d="M379.879,210.7a3.462,3.462,0,1,1,3.462,3.446A3.454,3.454,0,0,1,379.879,210.7Z" transform="translate(-366.535 -206.088)" fill="#363636"/>
      <path id="Path_23" data-name="Path 23" d="M418.321,210.7a3.462,3.462,0,1,1,3.462,3.446A3.454,3.454,0,0,1,418.321,210.7Z" transform="translate(-374.579 -206.088)" fill="#363636"/>
      <path id="Path_25" data-name="Path 25" d="M397.15,236.518c-1.521-7.628,13.678-7.628,12.158,0" transform="translate(-371.28 -212.111)" fill="none" stroke="#1a1917" stroke-linecap="round" stroke-miterlimit="10" stroke-width="2"/>
    </g>
  </g>
</svg>
