<svg id="Layer_1" data-name="Layer 1" xmlns="http://www.w3.org/2000/svg" viewBox="0 0 16 16"><defs><style>.cls-1{fill:#0065ff;}.cls-2{fill:#e0cfb3;}.cls-3{stroke:#000;}.cls-3,.cls-4{stroke-linecap:round;}.cls-3,.cls-4,.cls-5{stroke-miterlimit:10;stroke-width:0.2px;}.cls-4{fill:none;stroke:#818080;}.cls-5{fill:#f26d6d;stroke:#ce8282;opacity:0.5;isolation:isolate;}.cls-6{fill:#fff;}</style></defs><rect class="cls-1" width="16" height="16"/><g id="Group_581" data-name="Group 581"><path id="Path_26" data-name="Path 26" class="cls-2" d="M2.47,6.61C7,2.43,9,2.43,13.53,6.61" transform="translate(0 0)"/><path id="Path_27" data-name="Path 27" class="cls-2" d="M2.47,6.27c-4.35,9.88,15.41,9.88,11.06,0" transform="translate(0 0)"/><path id="Path_28" data-name="Path 28" class="cls-3" d="M.5,4.29a2,2,0,1,1,2,2A2,2,0,0,1,.5,4.29Z" transform="translate(0 0)"/><path id="Path_29" data-name="Path 29" class="cls-3" d="M11.55,4.29a2,2,0,1,1,2,2,2,2,0,0,1-2-2Z" transform="translate(0 0)"/><path id="Path_30" data-name="Path 30" class="cls-3" d="M2.47,7.45C2.47,8.65,8,3.66,8,3.56c0,.1-5.53-3.81-5.53,2.71" transform="translate(0 0)"/><path id="Path_31" data-name="Path 31" class="cls-3" d="M13.53,7.45C13.53,8.65,8,3.66,8,3.56c0,.1,5.53-3.81,5.53,2.71" transform="translate(0 0)"/><path id="Path_32" data-name="Path 32" class="cls-4" d="M6.42,11.21c-.89,1,4.05,1,3.16,0" transform="translate(0 0)"/><path id="Path_34" data-name="Path 34" class="cls-5" d="M3.85,10.22a1,1,0,0,1,2,0,1,1,0,0,1-2,0Z" transform="translate(0 0)"/><path id="Path_35" data-name="Path 35" class="cls-5" d="M10.17,10.22a1,1,0,1,1,1,1A1,1,0,0,1,10.17,10.22Z" transform="translate(0 0)"/><path id="Path_36" data-name="Path 36" class="cls-6" d="M4.84,7.85c0-.33.53-.6,1.19-.6s1.18.27,1.18.6-.53.59-1.18.59S4.84,8.17,4.84,7.85Z" transform="translate(0 0)"/><path id="Path_37" data-name="Path 37" class="cls-6" d="M8.79,7.85c0-.33.53-.6,1.18-.6s1.19.27,1.19.6-.53.59-1.19.59S8.79,8.17,8.79,7.85Z" transform="translate(0 0)"/><path id="Path_38" data-name="Path 38" class="cls-3" d="M5.71,7.87a.34.34,0,1,1,.34.34.34.34,0,0,1-.34-.34Z" transform="translate(0 0)"/><path id="Path_39" data-name="Path 39" class="cls-3" d="M9.65,7.87A.35.35,0,0,1,10,7.53a.34.34,0,0,1,0,.68.35.35,0,0,1-.35-.34Z" transform="translate(0 0)"/><path id="Path_41" data-name="Path 41" class="cls-4" d="M7.21,10.42c-.2-1,1.78-1,1.58,0" transform="translate(0 0)"/></g></svg>