<svg xmlns="http://www.w3.org/2000/svg" viewBox="0 0 70 65"><defs><style>.cls-1{stroke:#000;stroke-linecap:round;stroke-miterlimit:10;stroke-width:3px;}.cls-2{fill:none;}</style></defs><g id="Layer_2" data-name="Layer 2"><g id="Layer_1-2" data-name="Layer 1"><path id="Path_58" data-name="Path 58" class="cls-1" d="M5,29.76a7.89,7.89,0,1,1,7.89,7.89h0A7.89,7.89,0,0,1,5,29.76Z"/><path id="Path_59" data-name="Path 59" class="cls-1" d="M49.22,29.76a7.89,7.89,0,1,1,7.89,7.89h0a7.88,7.88,0,0,1-7.89-7.88Z"/><path id="Path_60" data-name="Path 60" class="cls-1" d="M12.89,42.39C12.89,47.16,35,27.25,35,26.86c0,.39-22.11-15.21-22.11,10.79"/><path id="Path_61" data-name="Path 61" class="cls-1" d="M57.11,42.39C57.11,47.16,35,27.25,35,26.86c0,.39,22.11-15.21,22.11,10.79"/><rect id="Rectangle_220" data-name="Rectangle 220" class="cls-2" width="70" height="65"/></g></g></svg>