<svg xmlns="http://www.w3.org/2000/svg" width="80.756" height="30.544" viewBox="0 0 80.756 30.544">
  <g id="Group_859" data-name="Group 859" transform="translate(-1124.787 -330.533)">
    <path id="Path_58" data-name="Path 58" d="M19.235,213.56a10.226,10.226,0,1,1,10.226,10.226A10.226,10.226,0,0,1,19.235,213.56Z" transform="translate(1107.052 128.699)" stroke="#000" stroke-linecap="round" stroke-miterlimit="10" stroke-width="3"/>
    <path id="Path_59" data-name="Path 59" d="M126.95,213.56a10.226,10.226,0,1,1,10.226,10.226A10.225,10.225,0,0,1,126.95,213.56Z" transform="translate(1056.641 128.699)" stroke="#000" stroke-linecap="round" stroke-miterlimit="10" stroke-width="3"/>
    <path id="Path_60" data-name="Path 60" d="M38.456,230.722c0,6.187,28.652-19.613,28.652-20.119,0,.506-28.652-19.71-28.652,13.984" transform="translate(1098.056 127.898)" stroke="#000" stroke-linecap="round" stroke-miterlimit="10" stroke-width="3"/>
    <path id="Path_61" data-name="Path 61" d="M120.966,230.722c0,6.187-28.653-19.613-28.653-20.119,0,.506,28.653-19.71,28.653,13.984" transform="translate(1072.851 127.898)" stroke="#000" stroke-linecap="round" stroke-miterlimit="10" stroke-width="3"/>
  </g>
</svg>
