<?xml version="1.0" encoding="utf-8"?>
<!-- Generator: Adobe Illustrator 24.3.0, SVG Export Plug-In . SVG Version: 6.00 Build 0)  -->
<svg version="1.1" id="Layer_1" focusable="false" xmlns="http://www.w3.org/2000/svg" xmlns:xlink="http://www.w3.org/1999/xlink"
	 x="0px" y="0px" viewBox="0 0 512 512" style="enable-background:new 0 0 512 512;" xml:space="preserve">
<g>
	<path d="M212.3,269.9c-28.7,1.8-54.7,12.8-69.5,51.7c-1.7,4.4-5.7,7.1-10.4,7.1c-7.9,0-32.5-19.8-39.5-24.6
		c0,58.9,27.1,110.6,91.5,110.6c54.2,0,91.5-31.3,91.5-85.9c0-2.2-0.5-4.3-0.7-6.5L212.3,269.9L212.3,269.9z M387.1,97.2
		c-8.9,0-17.3,4-23.7,9.7c-120.6,107.8-133.2,110.3-133.2,142c0,8.1,1.9,15.8,5.2,22.8l37.7,31.4c4.3,1.1,8.6,1.8,13.2,1.8
		c36.7,0,57.9-26.8,124.6-151.4c4.4-8.5,8.2-17.6,8.2-27.1C419.1,109.4,403.7,97.2,387.1,97.2z"/>
</g>
</svg>
