<svg xmlns="http://www.w3.org/2000/svg" width="70" height="65" viewBox="0 0 70 65">
  <g id="Group_1012" data-name="Group 1012" transform="translate(-613 429)">
    <path id="Path_782" data-name="Path 782" d="M206.333,69.529c18.327-16.049,26.3-16.049,44.631,0" transform="translate(419.631 -473.482)" fill="#fff"/>
    <path id="Path_783" data-name="Path 783" d="M202.736,84.635c-17.567,42.62,62.2,42.62,44.631,0" transform="translate(423.228 -489.026)" fill="#fff"/>
    <g id="Group_1002" data-name="Group 1002" transform="translate(618 -421)">
      <path id="Path_44" data-name="Path 44" d="M187.112,54.717a7.983,7.983,0,1,1,7.964,8.524A8.258,8.258,0,0,1,187.112,54.717Z" transform="translate(-187.112 -46.193)" fill="#fff"/>
      <path id="Path_45" data-name="Path 45" d="M294.826,54.717a7.983,7.983,0,1,1,7.964,8.524A8.259,8.259,0,0,1,294.826,54.717Z" transform="translate(-250.195 -46.193)" fill="#fff"/>
      <path id="Path_46" data-name="Path 46" d="M206.333,69.309c0,5.157,22.316-16.349,22.316-16.771,0,.422-22.316-16.43-22.316,11.657" transform="translate(-198.369 -47.146)" fill="#fff"/>
      <path id="Path_47" data-name="Path 47" d="M282.506,69.309c0,5.157-22.316-16.349-22.316-16.771,0,.422,22.316-16.43,22.316,11.657" transform="translate(-229.91 -47.146)" fill="#fff"/>
    </g>
    <rect id="Rectangle_231" data-name="Rectangle 231" width="70" height="65" transform="translate(613 -429)" fill="none"/>
    <g id="Group_1005" data-name="Group 1005" transform="translate(74 65)" opacity="0.25">
      <path id="Path_52" data-name="Path 52" d="M229.436,96.8c0-1.412,2.14-2.557,4.779-2.557s4.778,1.145,4.778,2.557-2.139,2.557-4.778,2.557S229.436,98.215,229.436,96.8Z" transform="translate(331.564 -560.936)" fill="#fff" stroke="#000" stroke-miterlimit="10" stroke-width="1"/>
      <path id="Path_53" data-name="Path 53" d="M267.878,96.8c0-1.412,2.14-2.557,4.779-2.557s4.778,1.145,4.778,2.557-2.139,2.557-4.778,2.557S267.878,98.215,267.878,96.8Z" transform="translate(309.05 -560.936)" fill="#fff" stroke="#000" stroke-miterlimit="10" stroke-width="1"/>
      <path id="Path_54" data-name="Path 54" d="M235.2,96.8a2.395,2.395,0,1,1,2.389,2.557A2.477,2.477,0,0,1,235.2,96.8Z" transform="translate(328.187 -560.936)" stroke="#000" stroke-miterlimit="10" stroke-width="1"/>
      <path id="Path_55" data-name="Path 55" d="M273.645,96.8a2.395,2.395,0,1,1,2.389,2.557A2.477,2.477,0,0,1,273.645,96.8Z" transform="translate(305.673 -560.936)" stroke="#000" stroke-miterlimit="10" stroke-width="1"/>
    </g>
    <path id="Path_786" data-name="Path 786" d="M219.787,123.467a10,10,0,1,0,10-10A10,10,0,0,0,219.787,123.467Z" transform="translate(405.213 -507.467)"/>
    <path id="Path_787" data-name="Path 787" d="M281.371,123.467a10,10,0,1,0,10-10A10,10,0,0,0,281.371,123.467Z" transform="translate(370.629 -507.467)"/>
  </g>
</svg>
