<svg xmlns="http://www.w3.org/2000/svg" width="70" height="65" viewBox="0 0 70 65">
  <g id="Group_1009" data-name="Group 1009" transform="translate(-613 494)">
    <path id="Path_782" data-name="Path 782" d="M206.333,69.529c18.327-16.049,26.3-16.049,44.631,0" transform="translate(419.631 -538.482)" fill="#fff"/>
    <path id="Path_783" data-name="Path 783" d="M202.736,84.635c-17.567,42.62,62.2,42.62,44.631,0" transform="translate(423.228 -554.026)" fill="#fff"/>
    <g id="Group_1002" data-name="Group 1002" transform="translate(618 -486)">
      <path id="Path_44" data-name="Path 44" d="M187.112,54.717a7.983,7.983,0,1,1,7.964,8.524A8.258,8.258,0,0,1,187.112,54.717Z" transform="translate(-187.112 -46.193)" fill="#fff"/>
      <path id="Path_45" data-name="Path 45" d="M294.826,54.717a7.983,7.983,0,1,1,7.964,8.524A8.259,8.259,0,0,1,294.826,54.717Z" transform="translate(-250.195 -46.193)" fill="#fff"/>
      <path id="Path_46" data-name="Path 46" d="M206.333,69.309c0,5.157,22.316-16.349,22.316-16.771,0,.422-22.316-16.43-22.316,11.657" transform="translate(-198.369 -47.146)" fill="#fff"/>
      <path id="Path_47" data-name="Path 47" d="M282.506,69.309c0,5.157-22.316-16.349-22.316-16.771,0,.422,22.316-16.43,22.316,11.657" transform="translate(-229.91 -47.146)" fill="#fff"/>
    </g>
    <rect id="Rectangle_231" data-name="Rectangle 231" width="70" height="65" transform="translate(613 -494)" fill="none"/>
    <g id="Group_1005" data-name="Group 1005" transform="translate(74)" opacity="0.25">
      <path id="Path_52" data-name="Path 52" d="M229.436,96.8c0-1.412,2.14-2.557,4.779-2.557s4.778,1.145,4.778,2.557-2.139,2.557-4.778,2.557S229.436,98.215,229.436,96.8Z" transform="translate(331.564 -560.936)" fill="#fff" stroke="#000" stroke-miterlimit="10" stroke-width="1"/>
      <path id="Path_53" data-name="Path 53" d="M267.878,96.8c0-1.412,2.14-2.557,4.779-2.557s4.778,1.145,4.778,2.557-2.139,2.557-4.778,2.557S267.878,98.215,267.878,96.8Z" transform="translate(309.05 -560.936)" fill="#fff" stroke="#000" stroke-miterlimit="10" stroke-width="1"/>
      <path id="Path_54" data-name="Path 54" d="M235.2,96.8a2.395,2.395,0,1,1,2.389,2.557A2.477,2.477,0,0,1,235.2,96.8Z" transform="translate(328.187 -560.936)" stroke="#000" stroke-miterlimit="10" stroke-width="1"/>
      <path id="Path_55" data-name="Path 55" d="M273.645,96.8a2.395,2.395,0,1,1,2.389,2.557A2.477,2.477,0,0,1,273.645,96.8Z" transform="translate(305.673 -560.936)" stroke="#000" stroke-miterlimit="10" stroke-width="1"/>
    </g>
    <g id="Group_1006" data-name="Group 1006" transform="translate(629 -463)">
      <g id="Group_1003" data-name="Group 1003" transform="translate(37.69 9.618) rotate(90)">
        <line id="Line_1" data-name="Line 1" x1="4.963" transform="translate(6.49 5.345)" fill="none" stroke="#000" stroke-linecap="round" stroke-width="2"/>
        <g id="Polygon_1" data-name="Polygon 1" transform="translate(0 10.69) rotate(-90)">
          <path d="M 7.511332511901855 4.990235328674316 L 3.178466081619263 4.990235328674316 L 5.344895362854004 2.359575271606445 L 7.511332511901855 4.990235328674316 Z" stroke="none"/>
          <path d="M 5.344899654388428 0.5730476379394531 C 5.630862236022949 0.5730476379394531 5.916824817657471 0.6944799423217773 6.116829872131348 0.937345027923584 L 9.34274959564209 4.854525089263916 C 9.879989624023438 5.506895065307617 9.415929794311523 6.490235328674316 8.570819854736328 6.490235328674316 L 2.118979454040527 6.490235328674316 C 1.273869514465332 6.490235328674316 0.809809684753418 5.506895065307617 1.347049713134766 4.854525089263916 L 4.572969436645508 0.937345027923584 C 4.772974491119385 0.6944799423217773 5.058937072753906 0.5730476379394531 5.344899654388428 0.5730476379394531 Z" stroke="none"/>
        </g>
      </g>
      <g id="Group_1004" data-name="Group 1004" transform="translate(0 21.072) rotate(-90)">
        <line id="Line_1-2" data-name="Line 1" x2="4.963" transform="translate(0 5.345)" fill="none" stroke="#000" stroke-linecap="round" stroke-width="2"/>
        <g id="Polygon_1-2" data-name="Polygon 1" transform="translate(11.453) rotate(90)">
          <path d="M 7.511309146881104 4.990222930908203 L 3.17847466468811 4.990222930908203 L 5.344895362854004 2.359573602676392 L 7.511309146881104 4.990222930908203 Z" stroke="none"/>
          <path d="M 5.344900131225586 0.5730528831481934 C 5.630862712860107 0.5730528831481934 5.916825294494629 0.6944828033447266 6.116830348968506 0.9373431205749512 L 9.342740058898926 4.854522705078125 C 9.879990577697754 5.506893157958984 9.415929794311523 6.490222930908203 8.570810317993164 6.490222930908203 L 2.118980407714844 6.490222930908203 C 1.273870468139648 6.490222930908203 0.809809684753418 5.506893157958984 1.347060203552246 4.854522705078125 L 4.572969913482666 0.9373431205749512 C 4.772974967956543 0.6944828033447266 5.058937549591064 0.5730528831481934 5.344900131225586 0.5730528831481934 Z" stroke="none"/>
        </g>
      </g>
      <path id="Path_784" data-name="Path 784" d="M219.787,117.784A4.318,4.318,0,1,1,224.1,122.1,4.318,4.318,0,0,1,219.787,117.784Z" transform="translate(-218.787 -113.467)"/>
      <path id="Path_785" data-name="Path 785" d="M281.371,117.784a4.318,4.318,0,1,1,4.318,4.318A4.318,4.318,0,0,1,281.371,117.784Z" transform="translate(-253.371 -113.467)"/>
    </g>
  </g>
</svg>
