<svg xmlns="http://www.w3.org/2000/svg" width="70" height="65" viewBox="0 0 70 65">
  <g id="Group_987" data-name="Group 987" transform="translate(528 549)">
    <g id="Layer_1-2" data-name="Layer 1-2" transform="translate(-528 -549)">
      <rect id="Rectangle_220" data-name="Rectangle 220" width="70" height="65" fill="none"/>
      <path id="Path_42" data-name="Path 42" d="M61.8,21.4c2.4,5.9,5.1,15.6,1.4,23.2-8.6,17.7-49,18.2-56.5,0C4.2,38.7,4.3,30.7,8.1,21.4,9.1,20,18.5,7,35.1,7A33.281,33.281,0,0,1,61.8,21.4Z" fill="#fff"/>
    </g>
    <g id="Group_986" data-name="Group 986" transform="translate(-2)">
      <path id="Path_776" data-name="Path 776" d="M219.787,119.467a6,6,0,1,1,6,6A6,6,0,0,1,219.787,119.467Z" transform="translate(-733.787 -629.467)" fill="#969696" opacity="0.5"/>
      <path id="Path_777" data-name="Path 777" d="M281.371,119.467a6,6,0,1,1,6,6A6,6,0,0,1,281.371,119.467Z" transform="translate(-761.897 -629.467)" fill="#969696" opacity="0.5"/>
    </g>
  </g>
</svg>
