<svg xmlns="http://www.w3.org/2000/svg" width="63.634" height="18.092" viewBox="0 0 63.634 18.092">
  <g id="Group_979" data-name="Group 979" transform="translate(-295 362)">
    <g id="Group_254" data-name="Group 254" transform="translate(310.463 -361)">
      <path id="Path_52" data-name="Path 52" d="M229.646,102.721c0-4.57,6.954-8.046,16.092-8.046s16.9,3.476,16.9,8.046-7.758,8.046-16.9,8.046S229.646,107.289,229.646,102.721Z" transform="translate(-229.646 -94.675)" fill="#fff" stroke="#000" stroke-miterlimit="10" stroke-width="2"/>
      <path id="Path_54" data-name="Path 54" d="M234.815,102.721c0-4.57,4.281-8.046,8.851-8.046a8.046,8.046,0,1,1,0,16.092C239.1,110.767,234.815,107.289,234.815,102.721Z" transform="translate(-226.769 -94.675)" stroke="#000" stroke-miterlimit="10" stroke-width="2"/>
    </g>
    <g id="Group_257" data-name="Group 257" transform="translate(305.233 -348.407) rotate(180)">
      <g id="Group_24" data-name="Group 24" transform="translate(0 0)">
        <line id="Line_1" data-name="Line 1" x2="4.023" transform="translate(0 4.95)" fill="none" stroke="#000" stroke-linecap="round" stroke-width="2"/>
        <g id="Polygon_1" data-name="Polygon 1" transform="translate(10.233) rotate(90)">
          <path d="M 6.650083541870117 4.467382907867432 L 3.178459882736206 4.467382907867432 L 4.914271831512451 2.359594583511353 L 6.650083541870117 4.467382907867432 Z" stroke="none"/>
          <path d="M 4.914268016815186 0.5730552673339844 C 5.200232028961182 0.5730552673339844 5.486196994781494 0.6944880485534668 5.686202049255371 0.9373531341552734 L 8.481501579284668 4.331672668457031 C 9.018752098083496 4.984052658081055 8.554691314697266 5.967382907867432 7.709571838378906 5.967382907867432 L 2.118971824645996 5.967382907867432 C 1.27385139465332 5.967382907867432 0.8097915649414062 4.984052658081055 1.347042083740234 4.331672668457031 L 4.142341613769531 0.9373531341552734 C 4.342341899871826 0.6944880485534668 4.628304481506348 0.5730552673339844 4.914268016815186 0.5730552673339844 Z" stroke="none"/>
        </g>
      </g>
    </g>
    <g id="Group_258" data-name="Group 258" transform="translate(347.877 -358.235)">
      <g id="Group_24-2" data-name="Group 24" transform="translate(0 0)">
        <line id="Line_1-2" data-name="Line 1" x2="4.828" transform="translate(0 4.879)" fill="none" stroke="#000" stroke-linecap="round" stroke-width="2"/>
        <g id="Polygon_1-2" data-name="Polygon 1" transform="translate(10.757) rotate(90)">
          <path d="M 6.650076866149902 4.467386245727539 L 3.178452730178833 4.467386245727539 L 4.914266109466553 2.359594583511353 L 6.650076866149902 4.467386245727539 Z" stroke="none"/>
          <path d="M 4.914263248443604 0.5730586051940918 C 5.200228214263916 0.5730586051940918 5.486193180084229 0.6944913864135742 5.686193466186523 0.9373564720153809 L 8.48149299621582 4.331676483154297 C 9.018733024597168 4.98405647277832 8.554673194885254 5.967386245727539 7.709553241729736 5.967386245727539 L 2.118973255157471 5.967386245727539 C 1.273853302001953 5.967386245727539 0.8097934722900391 4.98405647277832 1.347033500671387 4.331676483154297 L 4.142333030700684 0.9373564720153809 C 4.342333316802979 0.6944913864135742 4.628298282623291 0.5730586051940918 4.914263248443604 0.5730586051940918 Z" stroke="none"/>
        </g>
      </g>
    </g>
  </g>
</svg>
