<svg xmlns="http://www.w3.org/2000/svg" width="34.989" height="48.347" viewBox="0 0 34.989 48.347">
  <g id="Group_980" data-name="Group 980" transform="translate(-386.506 377.54)">
    <g id="Group_253" data-name="Group 253" transform="translate(387.506 -361.448)">
      <path id="Path_52" data-name="Path 52" d="M229.646,102.721c0-4.57,6.954-8.046,16.092-8.046s16.9,3.476,16.9,8.046-7.759,8.046-16.9,8.046S229.646,107.289,229.646,102.721Z" transform="translate(-229.646 -94.675)" fill="#fff" stroke="#000" stroke-miterlimit="10" stroke-width="2"/>
      <path id="Path_54" data-name="Path 54" d="M234.815,102.721c0-4.57,4.281-8.046,8.851-8.046a8.046,8.046,0,1,1,0,16.092C239.1,110.767,234.815,107.289,234.815,102.721Z" transform="translate(-226.77 -94.675)" stroke="#000" stroke-miterlimit="10" stroke-width="2"/>
    </g>
    <g id="Group_255" data-name="Group 255" transform="translate(398.77 -366.678) rotate(-90)">
      <g id="Group_24" data-name="Group 24" transform="translate(0 0)">
        <line id="Line_1" data-name="Line 1" x2="4.828" transform="translate(0 5.23)" fill="none" stroke="#000" stroke-linecap="round" stroke-width="2"/>
        <g id="Polygon_1" data-name="Polygon 1" transform="translate(10.862) rotate(90)">
          <path d="M 6.393840312957764 4.132185935974121 L 3.261329174041748 4.132185935974121 L 4.827582836151123 2.304883003234863 L 6.393840312957764 4.132185935974121 Z" stroke="none"/>
          <path d="M 4.82758617401123 0.5365886688232422 C 5.107440948486328 0.5365886688232422 5.387296199798584 0.6529908180236816 5.586846351623535 0.885796070098877 L 8.240205764770508 3.981395959854126 C 8.796216011047363 4.63006591796875 8.335306167602539 5.632185935974121 7.480956077575684 5.632185935974121 L 2.174216270446777 5.632185935974121 C 1.319866180419922 5.632185935974121 0.8589563369750977 4.63006591796875 1.414966583251953 3.981395959854126 L 4.068325996398926 0.885796070098877 C 4.267876148223877 0.6529908180236816 4.547731399536133 0.5365886688232422 4.82758617401123 0.5365886688232422 Z" stroke="none"/>
        </g>
      </g>
    </g>
    <g id="Group_256" data-name="Group 256" transform="translate(408.774 -339.322) rotate(90)">
      <g id="Group_24-2" data-name="Group 24" transform="translate(0 0)">
        <line id="Line_1-2" data-name="Line 1" x2="4.023" transform="translate(0 4.774)" fill="none" stroke="#000" stroke-linecap="round" stroke-width="2"/>
        <g id="Polygon_1-2" data-name="Polygon 1" transform="translate(10.128) rotate(90)">
          <path d="M 6.650076866149902 4.467386722564697 L 3.178452730178833 4.467386722564697 L 4.914266109466553 2.359595060348511 L 6.650076866149902 4.467386722564697 Z" stroke="none"/>
          <path d="M 4.914263248443604 0.57305908203125 C 5.200228214263916 0.57305908203125 5.486193180084229 0.6944918632507324 5.686193466186523 0.9373569488525391 L 8.48149299621582 4.331676483154297 C 9.018733024597168 4.98405647277832 8.554673194885254 5.967386722564697 7.709553241729736 5.967386722564697 L 2.118973255157471 5.967386722564697 C 1.273853302001953 5.967386722564697 0.8097934722900391 4.98405647277832 1.347033500671387 4.331676483154297 L 4.142333030700684 0.9373569488525391 C 4.342333316802979 0.6944918632507324 4.628298282623291 0.57305908203125 4.914263248443604 0.57305908203125 Z" stroke="none"/>
        </g>
      </g>
    </g>
  </g>
</svg>
