<svg xmlns="http://www.w3.org/2000/svg" width="70" height="65" viewBox="0 0 70 65">
  <g id="Group_965" data-name="Group 965" transform="translate(-282 555)">
    <g id="Group_203" data-name="Group 203" transform="translate(287 -547)">
      <path id="Path_42" data-name="Path 42" d="M206.333,69.529c18.327-16.049,26.3-16.049,44.631,0" transform="translate(-198.369 -52.482)" fill="#fff"/>
      <path id="Path_43" data-name="Path 43" d="M202.736,84.635c-17.567,42.62,62.2,42.62,44.631,0" transform="translate(-194.772 -68.026)" fill="#fff"/>
      <g id="Group_125" data-name="Group 125">
        <path id="Path_44" data-name="Path 44" d="M187.112,54.717a7.983,7.983,0,1,1,7.964,8.524A8.258,8.258,0,0,1,187.112,54.717Z" transform="translate(-187.112 -46.193)" fill="#fff"/>
        <path id="Path_45" data-name="Path 45" d="M294.826,54.717a7.983,7.983,0,1,1,7.964,8.524A8.259,8.259,0,0,1,294.826,54.717Z" transform="translate(-250.195 -46.193)" fill="#fff"/>
        <path id="Path_46" data-name="Path 46" d="M206.333,69.309c0,5.157,22.316-16.349,22.316-16.771,0,.422-22.316-16.43-22.316,11.657" transform="translate(-198.369 -47.146)" fill="#fff"/>
        <path id="Path_47" data-name="Path 47" d="M282.506,69.309c0,5.157-22.316-16.349-22.316-16.771,0,.422,22.316-16.43,22.316,11.657" transform="translate(-229.91 -47.146)" fill="#fff"/>
      </g>
    </g>
    <g id="Group_962" data-name="Group 962" transform="translate(-7.465)">
      <path id="Path_53" data-name="Path 53" d="M267.878,96.8c0-1.412,2.14-2.557,4.779-2.557s4.778,1.145,4.778,2.557-2.139,2.557-4.778,2.557S267.878,98.215,267.878,96.8Z" transform="translate(52.587 -619.936)" fill="#fff" stroke="#000" stroke-miterlimit="10" stroke-width="1"/>
      <path id="Path_55" data-name="Path 55" d="M273.645,96.8a2.395,2.395,0,1,1,2.389,2.557A2.477,2.477,0,0,1,273.645,96.8Z" transform="translate(49.21 -619.936)" stroke="#000" stroke-miterlimit="10" stroke-width="1"/>
    </g>
    <path id="Path_772" data-name="Path 772" d="M219.787,117.784A4.318,4.318,0,1,1,224.1,122.1,4.318,4.318,0,0,1,219.787,117.784Z" transform="translate(80.73 -634.357)" fill="#c9c9c9" opacity="0.5"/>
    <path id="Path_773" data-name="Path 773" d="M281.371,117.784a4.318,4.318,0,1,1,4.318,4.318A4.318,4.318,0,0,1,281.371,117.784Z" transform="translate(44.621 -634.357)" fill="#c9c9c9" opacity="0.5"/>
    <rect id="Rectangle_225" data-name="Rectangle 225" width="70" height="65" transform="translate(282 -555)" fill="none"/>
    <g id="Group_963" data-name="Group 963" transform="translate(332.276 -528.507)">
      <line id="Line_1" data-name="Line 1" x1="4.963" transform="translate(6.49 5.345)" fill="none" stroke="#000" stroke-linecap="round" stroke-width="2"/>
      <g id="Polygon_1" data-name="Polygon 1" transform="translate(0 10.69) rotate(-90)">
        <path d="M 7.511304378509521 4.990224838256836 L 3.178485155105591 4.990224838256836 L 5.344895839691162 2.359582185745239 L 7.511304378509521 4.990224838256836 Z" stroke="none"/>
        <path d="M 5.344895362854004 0.5730547904968262 C 5.630857944488525 0.5730547904968262 5.916820526123047 0.6944847106933594 6.116825580596924 0.937345027923584 L 9.342735290527344 4.854524612426758 C 9.879985809326172 5.506895065307617 9.415925025939941 6.490224838256836 8.570805549621582 6.490224838256836 L 2.118985176086426 6.490224838256836 C 1.273865699768066 6.490224838256836 0.8098049163818359 5.506895065307617 1.347055435180664 4.854524612426758 L 4.572965145111084 0.937345027923584 C 4.772970199584961 0.6944847106933594 5.058932781219482 0.5730547904968262 5.344895362854004 0.5730547904968262 Z" stroke="none"/>
      </g>
    </g>
    <g id="Group_964" data-name="Group 964" transform="translate(292 -528.507)">
      <line id="Line_1-2" data-name="Line 1" x2="4.963" transform="translate(0 5.345)" fill="none" stroke="#000" stroke-linecap="round" stroke-width="2"/>
      <g id="Polygon_1-2" data-name="Polygon 1" transform="translate(11.453 0) rotate(90)">
        <path d="M 7.511304378509521 4.990222930908203 L 3.178485155105591 4.990222930908203 L 5.344895839691162 2.359580039978027 L 7.511304378509521 4.990222930908203 Z" stroke="none"/>
        <path d="M 5.344895362854004 0.5730528831481934 C 5.630857944488525 0.5730528831481934 5.916820526123047 0.6944828033447266 6.116825580596924 0.937342643737793 L 9.342735290527344 4.854522705078125 C 9.879985809326172 5.506892681121826 9.415925025939941 6.490222930908203 8.570805549621582 6.490222930908203 L 2.118985176086426 6.490222930908203 C 1.273865699768066 6.490222930908203 0.8098049163818359 5.506892681121826 1.347055435180664 4.854522705078125 L 4.572965145111084 0.937342643737793 C 4.772970199584961 0.6944828033447266 5.058932781219482 0.5730528831481934 5.344895362854004 0.5730528831481934 Z" stroke="none"/>
      </g>
    </g>
  </g>
</svg>
