<svg xmlns="http://www.w3.org/2000/svg" width="70" height="65" viewBox="0 0 70 65">
  <g id="Group_978" data-name="Group 978" transform="translate(-282 474)">
    <g id="Group_976" data-name="Group 976">
      <g id="Group_203" data-name="Group 203" transform="translate(287 -466)">
        <path id="Path_42" data-name="Path 42" d="M206.333,69.529c18.327-16.049,26.3-16.049,44.631,0" transform="translate(-198.369 -52.482)" fill="#fff"/>
        <path id="Path_43" data-name="Path 43" d="M202.736,84.635c-17.567,42.62,62.2,42.62,44.631,0" transform="translate(-194.772 -68.026)" fill="#fff"/>
        <g id="Group_125" data-name="Group 125">
          <path id="Path_44" data-name="Path 44" d="M187.112,54.717a7.983,7.983,0,1,1,7.964,8.524A8.258,8.258,0,0,1,187.112,54.717Z" transform="translate(-187.112 -46.193)" fill="#fff"/>
          <path id="Path_45" data-name="Path 45" d="M294.826,54.717a7.983,7.983,0,1,1,7.964,8.524A8.259,8.259,0,0,1,294.826,54.717Z" transform="translate(-250.195 -46.193)" fill="#fff"/>
          <path id="Path_46" data-name="Path 46" d="M206.333,69.309c0,5.157,22.316-16.349,22.316-16.771,0,.422-22.316-16.43-22.316,11.657" transform="translate(-198.369 -47.146)" fill="#fff"/>
          <path id="Path_47" data-name="Path 47" d="M282.506,69.309c0,5.157-22.316-16.349-22.316-16.771,0,.422,22.316-16.43,22.316,11.657" transform="translate(-229.91 -47.146)" fill="#fff"/>
        </g>
      </g>
      <g id="Group_974" data-name="Group 974">
        <g id="Group_972" data-name="Group 972" transform="translate(-0.537)">
          <path id="Path_52" data-name="Path 52" d="M229.436,96.8c0-1.412,2.14-2.557,4.779-2.557s4.778,1.145,4.778,2.557-2.139,2.557-4.778,2.557S229.436,98.215,229.436,96.8Z" transform="translate(75.101 -523.936)" fill="#fff" stroke="#000" stroke-miterlimit="10" stroke-width="1"/>
          <path id="Path_54" data-name="Path 54" d="M235.2,96.8a2.395,2.395,0,1,1,2.389,2.557A2.477,2.477,0,0,1,235.2,96.8Z" transform="translate(71.724 -523.936)" stroke="#000" stroke-miterlimit="10" stroke-width="1"/>
        </g>
        <g id="Group_973" data-name="Group 973" transform="translate(0.535)">
          <path id="Path_53" data-name="Path 53" d="M267.878,96.8c0-1.412,2.14-2.557,4.779-2.557s4.778,1.145,4.778,2.557-2.139,2.557-4.778,2.557S267.878,98.215,267.878,96.8Z" transform="translate(52.587 -523.936)" fill="#fff" stroke="#000" stroke-miterlimit="10" stroke-width="1"/>
          <path id="Path_55" data-name="Path 55" d="M273.645,96.8a2.395,2.395,0,1,1,2.389,2.557A2.477,2.477,0,0,1,273.645,96.8Z" transform="translate(49.21 -523.936)" stroke="#000" stroke-miterlimit="10" stroke-width="1"/>
        </g>
      </g>
      <path id="Path_772" data-name="Path 772" d="M219.787,117.784A4.318,4.318,0,1,1,224.1,122.1,4.318,4.318,0,0,1,219.787,117.784Z" transform="translate(80.73 -553.357)" fill="#c9c9c9" opacity="0.5"/>
      <path id="Path_773" data-name="Path 773" d="M281.371,117.784a4.318,4.318,0,1,1,4.318,4.318A4.318,4.318,0,0,1,281.371,117.784Z" transform="translate(44.621 -553.357)" fill="#c9c9c9" opacity="0.5"/>
      <rect id="Rectangle_225" data-name="Rectangle 225" width="70" height="65" transform="translate(282 -474)" fill="none"/>
      <g id="Group_975" data-name="Group 975">
        <g id="Group_932" data-name="Group 932" transform="translate(320 -448.526)">
          <line id="Line_1" data-name="Line 1" x1="5.318" transform="translate(5.727 5.318) rotate(-90)" fill="none" stroke="#000" stroke-linecap="round" stroke-width="2"/>
          <g id="Polygon_1" data-name="Polygon 1" transform="translate(11.453 12.271) rotate(180)">
            <path d="M 9.334383964538574 5.953824520111084 L 2.11898398399353 5.953824520111084 L 5.726684093475342 1.573054671287537 L 9.334383964538574 5.953834533691406 L 9.334383964538574 5.953824520111084 Z" stroke="none"/>
            <path d="M 5.726683139801025 3.146101951599121 L 4.237974166870117 4.953824996948242 L 7.215397357940674 4.953824996948242 L 5.726683139801025 3.146101951599121 M 5.726684093475342 0.5730547904968262 C 6.012646675109863 0.5730547904968262 6.298609256744385 0.6944847106933594 6.498614311218262 0.9373445510864258 L 10.10631370544434 5.318124771118164 C 10.64356422424316 5.970494747161865 10.17950439453125 6.953824520111084 9.334383964538574 6.953824520111084 L 2.118984222412109 6.953824520111084 C 1.273863792419434 6.953824520111084 0.8098039627075195 5.970494747161865 1.347054481506348 5.318124771118164 L 4.954753875732422 0.9373445510864258 C 5.154758930206299 0.6944847106933594 5.44072151184082 0.5730547904968262 5.726684093475342 0.5730547904968262 Z" stroke="none"/>
          </g>
        </g>
        <g id="Group_931" data-name="Group 931" transform="translate(303 -448.526)">
          <g id="Polygon_1-2" data-name="Polygon 1" transform="translate(11.453 12.271) rotate(180)">
            <path d="M 9.334383964538574 5.953824520111084 L 2.11898398399353 5.953824520111084 L 5.726684093475342 1.573054671287537 L 9.334383964538574 5.953834533691406 L 9.334383964538574 5.953824520111084 Z" stroke="none"/>
            <path d="M 5.726683139801025 3.146101951599121 L 4.237974166870117 4.953824996948242 L 7.215397357940674 4.953824996948242 L 5.726683139801025 3.146101951599121 M 5.726684093475342 0.5730547904968262 C 6.012646675109863 0.5730547904968262 6.298609256744385 0.6944847106933594 6.498614311218262 0.9373445510864258 L 10.10631370544434 5.318124771118164 C 10.64356422424316 5.970494747161865 10.17950439453125 6.953824520111084 9.334383964538574 6.953824520111084 L 2.118984222412109 6.953824520111084 C 1.273863792419434 6.953824520111084 0.8098039627075195 5.970494747161865 1.347054481506348 5.318124771118164 L 4.954753875732422 0.9373445510864258 C 5.154758930206299 0.6944847106933594 5.44072151184082 0.5730547904968262 5.726684093475342 0.5730547904968262 Z" stroke="none"/>
          </g>
          <line id="Line_1-2" data-name="Line 1" x1="5.318" transform="translate(5.727 5.318) rotate(-90)" fill="none" stroke="#000" stroke-linecap="round" stroke-width="2"/>
        </g>
      </g>
    </g>
  </g>
</svg>
