<svg xmlns="http://www.w3.org/2000/svg" width="70" height="65" viewBox="0 0 70 65">
  <g id="Group_949" data-name="Group 949" transform="translate(-108 535)">
    <rect id="Rectangle_225" data-name="Rectangle 225" width="70" height="65" transform="translate(108 -535)" fill="none"/>
    <path id="Path_214" data-name="Path 214" d="M126.95,211.5a8.165,8.165,0,1,1,8.165,8.165A8.165,8.165,0,0,1,126.95,211.5Z" transform="translate(8.05 -728.334)"/>
    <path id="Path_213" data-name="Path 213" d="M126.95,211.5a8.165,8.165,0,1,1,8.165,8.165A8.165,8.165,0,0,1,126.95,211.5Z" transform="translate(8.05 -728.334)"/>
    <path id="Path_15" data-name="Path 15" d="M247.171,196.469c1.66,4.056,3.51,10.546.954,15.788-5.959,12.222-33.968,12.611-39.172,0-1.693-4.1-1.694-9.366.954-15.788.673-.972,7.183-10.047,18.632-10.047A23.482,23.482,0,0,1,247.171,196.469Z" transform="translate(-85.783 -701.57)" fill="#fff"/>
    <g id="Group_908" data-name="Group 908" transform="translate(120 -518.995)">
      <path id="Path_60" data-name="Path 60" d="M38.456,225.548c0,4.94,22.879-15.661,22.879-16.065,0,.4-22.879-15.739-22.879,11.166" transform="translate(-38.456 -205.046)" fill="#fff"/>
      <path id="Path_61" data-name="Path 61" d="M115.193,225.548c0,4.94-22.88-15.661-22.88-16.065,0,.4,22.88-15.739,22.88,11.166" transform="translate(-69.434 -205.046)" fill="#fff"/>
    </g>
    <g id="Group_923" data-name="Group 923" transform="translate(157.276 -524.507)">
      <line id="Line_1" data-name="Line 1" x1="4.963" transform="translate(6.49 5.345)" fill="none" stroke="#000" stroke-linecap="round" stroke-width="2"/>
      <g id="Polygon_1" data-name="Polygon 1" transform="translate(0 10.69) rotate(-90)">
        <path d="M 7.511304378509521 4.990224838256836 L 3.178485155105591 4.990224838256836 L 5.344895839691162 2.359582185745239 L 7.511304378509521 4.990224838256836 Z" stroke="none"/>
        <path d="M 5.344895362854004 0.5730547904968262 C 5.630857944488525 0.5730547904968262 5.916820526123047 0.6944847106933594 6.116825580596924 0.937345027923584 L 9.342735290527344 4.854524612426758 C 9.879985809326172 5.506895065307617 9.415925025939941 6.490224838256836 8.570805549621582 6.490224838256836 L 2.118985176086426 6.490224838256836 C 1.273865699768066 6.490224838256836 0.8098049163818359 5.506895065307617 1.347055435180664 4.854524612426758 L 4.572965145111084 0.937345027923584 C 4.772970199584961 0.6944847106933594 5.058932781219482 0.5730547904968262 5.344895362854004 0.5730547904968262 Z" stroke="none"/>
      </g>
    </g>
    <g id="Group_924" data-name="Group 924" transform="translate(117 -524.507)">
      <line id="Line_1-2" data-name="Line 1" x2="4.963" transform="translate(0 5.345)" fill="none" stroke="#000" stroke-linecap="round" stroke-width="2"/>
      <g id="Polygon_1-2" data-name="Polygon 1" transform="translate(11.453 0) rotate(90)">
        <path d="M 7.511304378509521 4.990222454071045 L 3.178485155105591 4.990222454071045 L 5.344895839691162 2.359579801559448 L 7.511304378509521 4.990222454071045 Z" stroke="none"/>
        <path d="M 5.344895362854004 0.5730524063110352 C 5.630857944488525 0.5730524063110352 5.916820526123047 0.6944823265075684 6.116825580596924 0.937342643737793 L 9.342735290527344 4.854522705078125 C 9.879985809326172 5.506892204284668 9.415925025939941 6.490222454071045 8.570805549621582 6.490222454071045 L 2.118985176086426 6.490222454071045 C 1.273865699768066 6.490222454071045 0.8098049163818359 5.506892204284668 1.347055435180664 4.854522705078125 L 4.572965145111084 0.937342643737793 C 4.772970199584961 0.6944823265075684 5.058932781219482 0.5730524063110352 5.344895362854004 0.5730524063110352 Z" stroke="none"/>
      </g>
    </g>
  </g>
</svg>
