<svg xmlns="http://www.w3.org/2000/svg" width="70" height="65" viewBox="0 0 70 65">
  <g id="Group_945" data-name="Group 945" transform="translate(-108 466)">
    <rect id="Rectangle_227" data-name="Rectangle 227" width="70" height="65" transform="translate(108 -466)" fill="none"/>
    <g id="Group_936" data-name="Group 936">
      <g id="Group_930" data-name="Group 930" transform="translate(110 -430.751)">
        <path id="Path_214" data-name="Path 214" d="M126.95,212.083a8.749,8.749,0,1,0,8.749-8.749A8.748,8.748,0,0,0,126.95,212.083Z" transform="translate(-126.95 -203.334)"/>
        <path id="Path_213" data-name="Path 213" d="M126.95,212.083a8.749,8.749,0,1,0,8.749-8.749A8.748,8.748,0,0,0,126.95,212.083Z" transform="translate(-78.035 -203.334)"/>
      </g>
      <g id="Group_929" data-name="Group 929" transform="translate(95 -8.526)">
        <path id="Path_15" data-name="Path 15" d="M249.985,197.186c1.779,4.346,3.76,11.3,1.022,16.916-6.385,13.1-36.394,13.512-41.97,0-1.814-4.4-1.815-10.035,1.022-16.916.721-1.041,7.7-10.764,19.963-10.764A25.159,25.159,0,0,1,249.985,197.186Z" transform="translate(-181.783 -627.067)" fill="#fff"/>
        <g id="Group_928" data-name="Group 928" transform="translate(-0.431)">
          <path id="Path_60" data-name="Path 60" d="M38.456,227.013c0,5.293,24.513-16.78,24.513-17.213,0,.433-24.513-16.863-24.513,11.964" transform="translate(-14.025 -651.521)" fill="#fff"/>
          <path id="Path_61" data-name="Path 61" d="M116.827,227.013c0,5.293-24.514-16.78-24.514-17.213,0,.433,24.514-16.863,24.514,11.964" transform="translate(-43.368 -651.521)" fill="#fff"/>
        </g>
      </g>
      <g id="Group_934" data-name="Group 934" transform="translate(109 -454.526)">
        <g id="Group_932" data-name="Group 932" transform="translate(57.099)">
          <line id="Line_1" data-name="Line 1" x1="5.318" transform="translate(5.727 5.318) rotate(-90)" fill="none" stroke="#000" stroke-linecap="round" stroke-width="2"/>
          <g id="Polygon_1" data-name="Polygon 1" transform="translate(11.453 12.271) rotate(180)">
            <path d="M 9.334383964538574 5.953824520111084 L 2.11898398399353 5.953824520111084 L 5.726684093475342 1.573054671287537 L 9.334383964538574 5.953834533691406 L 9.334383964538574 5.953824520111084 Z" stroke="none"/>
            <path d="M 5.726683139801025 3.146101951599121 L 4.237974166870117 4.953824996948242 L 7.215397357940674 4.953824996948242 L 5.726683139801025 3.146101951599121 M 5.726684093475342 0.5730547904968262 C 6.012646675109863 0.5730547904968262 6.298609256744385 0.6944847106933594 6.498614311218262 0.9373445510864258 L 10.10631370544434 5.318124771118164 C 10.64356422424316 5.970494747161865 10.17950439453125 6.953824520111084 9.334383964538574 6.953824520111084 L 2.118984222412109 6.953824520111084 C 1.273863792419434 6.953824520111084 0.8098039627075195 5.970494747161865 1.347054481506348 5.318124771118164 L 4.954753875732422 0.9373445510864258 C 5.154758930206299 0.6944847106933594 5.44072151184082 0.5730547904968262 5.726684093475342 0.5730547904968262 Z" stroke="none"/>
          </g>
        </g>
        <g id="Group_931" data-name="Group 931">
          <g id="Polygon_1-2" data-name="Polygon 1" transform="translate(11.453 12.271) rotate(180)">
            <path d="M 9.334383964538574 5.953824520111084 L 2.11898398399353 5.953824520111084 L 5.726684093475342 1.573054671287537 L 9.334383964538574 5.953834533691406 L 9.334383964538574 5.953824520111084 Z" stroke="none"/>
            <path d="M 5.726683139801025 3.146101951599121 L 4.237974166870117 4.953824996948242 L 7.215397357940674 4.953824996948242 L 5.726683139801025 3.146101951599121 M 5.726684093475342 0.5730547904968262 C 6.012646675109863 0.5730547904968262 6.298609256744385 0.6944847106933594 6.498614311218262 0.9373445510864258 L 10.10631370544434 5.318124771118164 C 10.64356422424316 5.970494747161865 10.17950439453125 6.953824520111084 9.334383964538574 6.953824520111084 L 2.118984222412109 6.953824520111084 C 1.273863792419434 6.953824520111084 0.8098039627075195 5.970494747161865 1.347054481506348 5.318124771118164 L 4.954753875732422 0.9373445510864258 C 5.154758930206299 0.6944847106933594 5.44072151184082 0.5730547904968262 5.726684093475342 0.5730547904968262 Z" stroke="none"/>
          </g>
          <line id="Line_1-2" data-name="Line 1" x1="5.318" transform="translate(5.727 5.318) rotate(-90)" fill="none" stroke="#000" stroke-linecap="round" stroke-width="2"/>
        </g>
      </g>
    </g>
  </g>
</svg>
