<svg xmlns="http://www.w3.org/2000/svg" width="70" height="65" viewBox="0 0 70 65">
  <g id="Group_907" data-name="Group 907" transform="translate(-35 374)">
    <g id="Group_886" data-name="Group 886" transform="translate(-530.95 -54.933)">
      <path id="Path_211" data-name="Path 211" d="M19.235,213.886c0-5.828,4.122-10.552,9.206-10.552s9.206,4.724,9.206,10.552-4.121,10.552-9.206,10.552S19.235,219.713,19.235,213.886Z" transform="translate(546.715 -512.401)"/>
      <path id="Path_212" data-name="Path 212" d="M126.95,213.886c0-5.828,4.121-10.552,9.206-10.552s9.206,4.724,9.206,10.552-4.122,10.552-9.206,10.552S126.95,219.713,126.95,213.886Z" transform="translate(490.588 -512.401)"/>
      <path id="Path_15" data-name="Path 15" d="M251.021,197.45c1.823,4.452,3.852,11.577,1.047,17.331-6.541,13.417-37.288,13.843-43,0-1.858-4.5-1.859-10.282,1.047-17.331.738-1.067,7.885-11.028,20.453-11.028A25.777,25.777,0,0,1,251.021,197.45Z" transform="translate(370.481 -489.072)" fill="#fff"/>
      <path id="Path_60" data-name="Path 60" d="M38.456,231.541c0,6.384,25.794-20.239,25.794-20.761,0,.522-25.794-20.339-25.794,14.43" transform="translate(536.512 -513.722)" fill="#fff"/>
      <path id="Path_61" data-name="Path 61" d="M118.108,231.541c0,6.384-25.795-20.239-25.795-20.761,0,.522,25.795-20.339,25.795,14.43" transform="translate(508.449 -513.722)" fill="#fff"/>
    </g>
    <rect id="Rectangle_223" data-name="Rectangle 223" width="70" height="65" transform="translate(35 -374)" fill="none"/>
  </g>
</svg>
