<svg xmlns="http://www.w3.org/2000/svg" width="70" height="65" viewBox="0 0 70 65">
  <g id="Group_901" data-name="Group 901" transform="translate(105 391)">
    <g id="Group_900" data-name="Group 900" transform="translate(0)">
      <path id="Path_15" data-name="Path 15" d="M254.528,198.345c1.97,4.813,4.165,12.515,1.132,18.737-7.072,14.5-40.312,14.966-46.488,0-2.009-4.87-2.01-11.115,1.132-18.737.8-1.154,8.525-11.923,22.112-11.923A27.867,27.867,0,0,1,254.528,198.345Z" transform="translate(-302.783 -563.313)" fill="#fff"/>
      <path id="Path_195" data-name="Path 195" d="M454.168,82.777c0,56.314,24-18.145,24-18.541,0,.4-24-15.42-24,10.94" transform="translate(-548.223 -441.889)"/>
      <path id="Path_196" data-name="Path 196" d="M628.168,82.777c0,56.314-24-18.145-24-18.541,0,.4,24-15.42,24,10.94" transform="translate(-674.223 -441.889)"/>
    </g>
    <rect id="Rectangle_219" data-name="Rectangle 219" width="70" height="65" transform="translate(-105 -391)" fill="none"/>
  </g>
</svg>
