<svg xmlns="http://www.w3.org/2000/svg" width="70" height="70.088" viewBox="0 0 70 70.088">
  <g id="Group_905" data-name="Group 905" transform="translate(109 324)">
    <g id="Group_890" data-name="Group 890" transform="translate(-362 -1141)">
      <path id="Path_15" data-name="Path 15" d="M255.673,198.637c2.019,4.931,4.267,12.822,1.16,19.2-7.245,14.86-41.3,15.333-47.626,0-2.058-4.989-2.059-11.388,1.16-19.2.818-1.182,8.734-12.215,22.653-12.215A28.55,28.55,0,0,1,255.673,198.637Z" transform="translate(55.217 636.687)" fill="#fff"/>
      <path id="Path_209" data-name="Path 209" d="M302,304.043c0-45.16,24-65.344,24-65.741,0,.4-24-15.42-24,10.94" transform="translate(-38.055 583.044)"/>
      <path id="Path_210" data-name="Path 210" d="M476,304.043c0-45.16-24-65.344-24-65.741,0,.4,24-15.42,24,10.94" transform="translate(-164.055 583.044)"/>
    </g>
    <rect id="Rectangle_221" data-name="Rectangle 221" width="70" height="65" transform="translate(-109 -321)" fill="none"/>
  </g>
</svg>
