<svg xmlns="http://www.w3.org/2000/svg" width="71.5" height="65" viewBox="0 0 71.5 65">
  <g id="Group_897" data-name="Group 897" transform="translate(208.75 466)">
    <g id="Group_891" data-name="Group 891" transform="translate(-934 111)">
      <path id="Path_15" data-name="Path 15" d="M253.9,198.184c1.944,4.748,4.109,12.346,1.117,18.484-6.977,14.309-39.767,14.764-45.86,0-1.982-4.8-1.983-10.965,1.117-18.484.787-1.138,8.41-11.762,21.813-11.762A27.491,27.491,0,0,1,253.9,198.184Z" transform="translate(528.934 -749.57)" fill="#fff"/>
      <path id="Path_95" data-name="Path 95" d="M252,237.2c0-4.254,3.918-7.7,8.75-7.7s8.75,3.449,8.75,7.7-3.918,7.7-8.75,7.7S252,241.458,252,237.2Z" transform="translate(474 -796.5)" fill="#fff" stroke="#000" stroke-linecap="round" stroke-miterlimit="10" stroke-width="1.5"/>
      <path id="Path_96" data-name="Path 96" d="M552,237.2c0-4.254,3.918-7.7,8.75-7.7s8.75,3.449,8.75,7.7-3.917,7.7-8.75,7.7S552,241.458,552,237.2Z" transform="translate(226.5 -796.5)" fill="#fff" stroke="#000" stroke-linecap="round" stroke-miterlimit="10" stroke-width="1.5"/>
      <path id="Path_97" data-name="Path 97" d="M260.891,244.725c0-3.5,3.221-6.334,7.194-6.334s7.194,2.836,7.194,6.334-3.221,6.334-7.194,6.334S260.891,248.223,260.891,244.725Z" transform="translate(466.665 -804.021)" fill="#fff" stroke="#000" stroke-linecap="round" stroke-miterlimit="10" stroke-width="1.5"/>
      <path id="Path_98" data-name="Path 98" d="M560.891,244.725c0-3.5,3.221-6.334,7.194-6.334s7.194,2.836,7.194,6.334-3.221,6.334-7.194,6.334S560.891,248.223,560.891,244.725Z" transform="translate(219.165 -804.021)" fill="#fff" stroke="#000" stroke-linecap="round" stroke-miterlimit="10" stroke-width="1.5"/>
      <path id="Path_99" data-name="Path 99" d="M268.912,251.51c0-2.815,2.592-5.1,5.79-5.1s5.79,2.282,5.79,5.1-2.592,5.1-5.79,5.1S268.912,254.325,268.912,251.51Z" transform="translate(460.048 -810.806)" fill="#fff" stroke="#000" stroke-linecap="round" stroke-miterlimit="10" stroke-width="1.5"/>
      <path id="Path_100" data-name="Path 100" d="M568.912,251.51c0-2.815,2.592-5.1,5.79-5.1s5.79,2.282,5.79,5.1-2.593,5.1-5.79,5.1S568.912,254.325,568.912,251.51Z" transform="translate(212.548 -810.806)" fill="#fff" stroke="#000" stroke-linecap="round" stroke-miterlimit="10" stroke-width="1.5"/>
      <path id="Path_101" data-name="Path 101" d="M276.064,257.559a4.576,4.576,0,1,1,4.539,4A4.294,4.294,0,0,1,276.064,257.559Z" transform="translate(454.147 -816.856)" fill="#fff" stroke="#000" stroke-linecap="round" stroke-miterlimit="10" stroke-width="1.5"/>
      <path id="Path_102" data-name="Path 102" d="M576.063,257.559a4.576,4.576,0,1,1,4.539,4A4.294,4.294,0,0,1,576.063,257.559Z" transform="translate(206.648 -816.856)" fill="#fff" stroke="#000" stroke-linecap="round" stroke-miterlimit="10" stroke-width="1.5"/>
      <path id="Path_103" data-name="Path 103" d="M282.345,262.873a3.468,3.468,0,1,1,3.44,3.028A3.254,3.254,0,0,1,282.345,262.873Z" transform="translate(448.965 -822.17)" fill="#fff" stroke="#000" stroke-linecap="round" stroke-miterlimit="10" stroke-width="1.5"/>
      <path id="Path_104" data-name="Path 104" d="M582.345,262.873a3.468,3.468,0,1,1,3.44,3.028A3.254,3.254,0,0,1,582.345,262.873Z" transform="translate(201.465 -822.17)" fill="#fff" stroke="#000" stroke-linecap="round" stroke-miterlimit="10" stroke-width="1.5"/>
      <path id="Path_105" data-name="Path 105" d="M287.757,267.451a2.513,2.513,0,1,1,2.493,2.194A2.358,2.358,0,0,1,287.757,267.451Z" transform="translate(444.501 -826.748)" fill="#fff" stroke="#000" stroke-linecap="round" stroke-miterlimit="10" stroke-width="1.5"/>
      <path id="Path_106" data-name="Path 106" d="M587.757,267.451a2.513,2.513,0,1,1,2.493,2.194A2.358,2.358,0,0,1,587.757,267.451Z" transform="translate(197.001 -826.748)" fill="#fff" stroke="#000" stroke-linecap="round" stroke-miterlimit="10" stroke-width="1.5"/>
      <path id="Path_107" data-name="Path 107" d="M292.3,271.294a1.711,1.711,0,1,1,1.7,1.495A1.606,1.606,0,0,1,292.3,271.294Z" transform="translate(440.753 -830.591)" fill="#fff" stroke="#000" stroke-linecap="round" stroke-miterlimit="10" stroke-width="1.5"/>
      <path id="Path_108" data-name="Path 108" d="M592.3,271.294a1.711,1.711,0,1,1,1.7,1.495A1.606,1.606,0,0,1,592.3,271.294Z" transform="translate(193.253 -830.591)" fill="#fff" stroke="#000" stroke-linecap="round" stroke-miterlimit="10" stroke-width="1.5"/>
      <path id="Path_109" data-name="Path 109" d="M295.973,274.4a1.063,1.063,0,1,1,1.055.929A1,1,0,0,1,295.973,274.4Z" transform="translate(437.722 -833.698)" fill="#fff" stroke="#000" stroke-linecap="round" stroke-miterlimit="10" stroke-width="1.5"/>
      <path id="Path_110" data-name="Path 110" d="M595.973,274.4a1.063,1.063,0,1,1,1.055.929A1,1,0,0,1,595.973,274.4Z" transform="translate(190.222 -833.698)" fill="#fff" stroke="#000" stroke-linecap="round" stroke-miterlimit="10" stroke-width="1.5"/>
      <path id="Path_111" data-name="Path 111" d="M298.776,276.773a.569.569,0,1,1,.564.5A.534.534,0,0,1,298.776,276.773Z" transform="translate(435.41 -836.069)" fill="#fff" stroke="#000" stroke-linecap="round" stroke-miterlimit="10" stroke-width="1.5"/>
      <path id="Path_112" data-name="Path 112" d="M598.776,276.773a.569.569,0,1,1,.564.5A.534.534,0,0,1,598.776,276.773Z" transform="translate(187.91 -836.069)" fill="#fff" stroke="#000" stroke-linecap="round" stroke-miterlimit="10" stroke-width="1.5"/>
      <path id="Path_113" data-name="Path 113" d="M300.709,278.408a.228.228,0,1,1,.226.2A.214.214,0,0,1,300.709,278.408Z" transform="translate(433.815 -837.704)" fill="#fff" stroke="#000" stroke-linecap="round" stroke-miterlimit="10" stroke-width="1.5"/>
      <path id="Path_114" data-name="Path 114" d="M600.709,278.408a.228.228,0,1,1,.226.2A.214.214,0,0,1,600.709,278.408Z" transform="translate(186.315 -837.704)" fill="#fff" stroke="#000" stroke-linecap="round" stroke-miterlimit="10" stroke-width="1.5"/>
      <path id="Path_115" data-name="Path 115" d="M301.773,279.308a.04.04,0,1,1,.04.035A.037.037,0,0,1,301.773,279.308Z" transform="translate(432.937 -838.605)" fill="#fff" stroke="#000" stroke-linecap="round" stroke-miterlimit="10" stroke-width="1.5"/>
      <path id="Path_116" data-name="Path 116" d="M601.773,279.308a.04.04,0,1,1,.04.035A.038.038,0,0,1,601.773,279.308Z" transform="translate(185.437 -838.605)" fill="#fff" stroke="#000" stroke-linecap="round" stroke-miterlimit="10" stroke-width="1.5"/>
      <path id="Path_117" data-name="Path 117" d="M252,237.2c0-4.254,3.918-7.7,8.75-7.7s8.75,3.449,8.75,7.7-3.918,7.7-8.75,7.7S252,241.458,252,237.2Z" transform="translate(474 -796.5)" fill="#fff" stroke="#000" stroke-linecap="round" stroke-miterlimit="10" stroke-width="1.5"/>
      <path id="Path_118" data-name="Path 118" d="M552,237.2c0-4.254,3.918-7.7,8.75-7.7s8.75,3.449,8.75,7.7-3.917,7.7-8.75,7.7S552,241.458,552,237.2Z" transform="translate(226.5 -796.5)" fill="#fff" stroke="#000" stroke-linecap="round" stroke-miterlimit="10" stroke-width="1.5"/>
      <path id="Path_119" data-name="Path 119" d="M260.891,244.725c0-3.5,3.221-6.334,7.194-6.334s7.194,2.836,7.194,6.334-3.221,6.334-7.194,6.334S260.891,248.223,260.891,244.725Z" transform="translate(466.665 -804.021)" fill="#fff" stroke="#000" stroke-linecap="round" stroke-miterlimit="10" stroke-width="1.5"/>
      <path id="Path_120" data-name="Path 120" d="M560.891,244.725c0-3.5,3.221-6.334,7.194-6.334s7.194,2.836,7.194,6.334-3.221,6.334-7.194,6.334S560.891,248.223,560.891,244.725Z" transform="translate(219.165 -804.021)" fill="#fff" stroke="#000" stroke-linecap="round" stroke-miterlimit="10" stroke-width="1.5"/>
      <path id="Path_121" data-name="Path 121" d="M268.912,251.51c0-2.815,2.592-5.1,5.79-5.1s5.79,2.282,5.79,5.1-2.592,5.1-5.79,5.1S268.912,254.325,268.912,251.51Z" transform="translate(460.048 -810.806)" fill="#fff" stroke="#000" stroke-linecap="round" stroke-miterlimit="10" stroke-width="1.5"/>
      <path id="Path_122" data-name="Path 122" d="M568.912,251.51c0-2.815,2.592-5.1,5.79-5.1s5.79,2.282,5.79,5.1-2.593,5.1-5.79,5.1S568.912,254.325,568.912,251.51Z" transform="translate(212.548 -810.806)" fill="#fff" stroke="#000" stroke-linecap="round" stroke-miterlimit="10" stroke-width="1.5"/>
      <path id="Path_123" data-name="Path 123" d="M276.064,257.559a4.576,4.576,0,1,1,4.539,4A4.294,4.294,0,0,1,276.064,257.559Z" transform="translate(454.147 -816.856)" fill="#fff" stroke="#000" stroke-linecap="round" stroke-miterlimit="10" stroke-width="1.5"/>
      <path id="Path_124" data-name="Path 124" d="M576.063,257.559a4.576,4.576,0,1,1,4.539,4A4.294,4.294,0,0,1,576.063,257.559Z" transform="translate(206.648 -816.856)" fill="#fff" stroke="#000" stroke-linecap="round" stroke-miterlimit="10" stroke-width="1.5"/>
      <path id="Path_125" data-name="Path 125" d="M282.345,262.873a3.468,3.468,0,1,1,3.44,3.028A3.254,3.254,0,0,1,282.345,262.873Z" transform="translate(448.965 -822.17)" fill="#fff" stroke="#000" stroke-linecap="round" stroke-miterlimit="10" stroke-width="1.5"/>
      <path id="Path_126" data-name="Path 126" d="M582.345,262.873a3.468,3.468,0,1,1,3.44,3.028A3.254,3.254,0,0,1,582.345,262.873Z" transform="translate(201.465 -822.17)" fill="#fff" stroke="#000" stroke-linecap="round" stroke-miterlimit="10" stroke-width="1.5"/>
      <path id="Path_127" data-name="Path 127" d="M287.757,267.451a2.513,2.513,0,1,1,2.493,2.194A2.358,2.358,0,0,1,287.757,267.451Z" transform="translate(444.501 -826.748)" fill="#fff" stroke="#000" stroke-linecap="round" stroke-miterlimit="10" stroke-width="1.5"/>
      <path id="Path_128" data-name="Path 128" d="M587.757,267.451a2.513,2.513,0,1,1,2.493,2.194A2.358,2.358,0,0,1,587.757,267.451Z" transform="translate(197.001 -826.748)" fill="#fff" stroke="#000" stroke-linecap="round" stroke-miterlimit="10" stroke-width="1.5"/>
      <path id="Path_129" data-name="Path 129" d="M292.3,271.294a1.711,1.711,0,1,1,1.7,1.495A1.606,1.606,0,0,1,292.3,271.294Z" transform="translate(440.753 -830.591)" fill="#fff" stroke="#000" stroke-linecap="round" stroke-miterlimit="10" stroke-width="1.5"/>
      <path id="Path_130" data-name="Path 130" d="M592.3,271.294a1.711,1.711,0,1,1,1.7,1.495A1.606,1.606,0,0,1,592.3,271.294Z" transform="translate(193.253 -830.591)" fill="#fff" stroke="#000" stroke-linecap="round" stroke-miterlimit="10" stroke-width="1.5"/>
      <path id="Path_131" data-name="Path 131" d="M295.973,274.4a1.063,1.063,0,1,1,1.055.929A1,1,0,0,1,295.973,274.4Z" transform="translate(437.722 -833.698)" fill="#fff" stroke="#000" stroke-linecap="round" stroke-miterlimit="10" stroke-width="1.5"/>
      <path id="Path_132" data-name="Path 132" d="M595.973,274.4a1.063,1.063,0,1,1,1.055.929A1,1,0,0,1,595.973,274.4Z" transform="translate(190.222 -833.698)" fill="#fff" stroke="#000" stroke-linecap="round" stroke-miterlimit="10" stroke-width="1.5"/>
      <path id="Path_133" data-name="Path 133" d="M298.776,276.773a.569.569,0,1,1,.564.5A.534.534,0,0,1,298.776,276.773Z" transform="translate(435.41 -836.069)" fill="#fff" stroke="#000" stroke-linecap="round" stroke-miterlimit="10" stroke-width="1.5"/>
      <path id="Path_134" data-name="Path 134" d="M598.776,276.773a.569.569,0,1,1,.564.5A.534.534,0,0,1,598.776,276.773Z" transform="translate(187.91 -836.069)" fill="#fff" stroke="#000" stroke-linecap="round" stroke-miterlimit="10" stroke-width="1.5"/>
      <path id="Path_135" data-name="Path 135" d="M300.709,278.408a.228.228,0,1,1,.226.2A.214.214,0,0,1,300.709,278.408Z" transform="translate(433.815 -837.704)" fill="#fff" stroke="#000" stroke-linecap="round" stroke-miterlimit="10" stroke-width="1.5"/>
      <path id="Path_136" data-name="Path 136" d="M600.709,278.408a.228.228,0,1,1,.226.2A.214.214,0,0,1,600.709,278.408Z" transform="translate(186.315 -837.704)" fill="#fff" stroke="#000" stroke-linecap="round" stroke-miterlimit="10" stroke-width="1.5"/>
      <path id="Path_137" data-name="Path 137" d="M301.773,279.308a.04.04,0,1,1,.04.035A.037.037,0,0,1,301.773,279.308Z" transform="translate(432.937 -838.605)" fill="#fff" stroke="#000" stroke-linecap="round" stroke-miterlimit="10" stroke-width="1.5"/>
      <path id="Path_138" data-name="Path 138" d="M601.773,279.308a.04.04,0,1,1,.04.035A.038.038,0,0,1,601.773,279.308Z" transform="translate(185.437 -838.605)" fill="#fff" stroke="#000" stroke-linecap="round" stroke-miterlimit="10" stroke-width="1.5"/>
      <path id="Path_139" data-name="Path 139" d="M302,248.676c0-25.383,26.25-10.153,26.25-10.534" transform="translate(432.75 -800.269)" fill="#fff" stroke="#000" stroke-linecap="round" stroke-miterlimit="10" stroke-width="1.5"/>
      <path id="Path_140" data-name="Path 140" d="M478.25,248.676c0-25.383-26.25-10.153-26.25-10.534" transform="translate(309 -800.269)" fill="#fff" stroke="#000" stroke-linecap="round" stroke-miterlimit="10" stroke-width="1.5"/>
      <path id="Path_141" data-name="Path 141" d="M302,249.51c0-25.536,26.25-10.44,26.25-10.822" transform="translate(432.75 -800.815)" fill="#fff" stroke="#000" stroke-linecap="round" stroke-miterlimit="10" stroke-width="1.5"/>
      <path id="Path_142" data-name="Path 142" d="M478.25,249.51c0-25.536-26.25-10.44-26.25-10.822" transform="translate(309 -800.815)" fill="#fff" stroke="#000" stroke-linecap="round" stroke-miterlimit="10" stroke-width="1.5"/>
      <path id="Path_143" data-name="Path 143" d="M302,250.923c0-25.421,26.25-10.728,26.25-11.109" transform="translate(432.75 -801.942)" fill="#fff" stroke="#000" stroke-linecap="round" stroke-miterlimit="10" stroke-width="1.5"/>
      <path id="Path_144" data-name="Path 144" d="M478.25,250.923C478.25,225.5,452,240.2,452,239.814" transform="translate(309 -801.942)" fill="#fff" stroke="#000" stroke-linecap="round" stroke-miterlimit="10" stroke-width="1.5"/>
      <path id="Path_145" data-name="Path 145" d="M302,252.9c0-25.039,26.25-11.015,26.25-11.4" transform="translate(432.75 -803.631)" fill="#fff" stroke="#000" stroke-linecap="round" stroke-miterlimit="10" stroke-width="1.5"/>
      <path id="Path_146" data-name="Path 146" d="M478.25,252.9c0-25.039-26.25-11.015-26.25-11.4" transform="translate(309 -803.631)" fill="#fff" stroke="#000" stroke-linecap="round" stroke-miterlimit="10" stroke-width="1.5"/>
      <path id="Path_147" data-name="Path 147" d="M302,255.413c0-24.388,26.25-11.3,26.25-11.684" transform="translate(432.75 -805.857)" fill="#fff" stroke="#000" stroke-linecap="round" stroke-miterlimit="10" stroke-width="1.5"/>
      <path id="Path_148" data-name="Path 148" d="M478.25,255.413c0-24.388-26.25-11.3-26.25-11.684" transform="translate(309 -805.857)" fill="#fff" stroke="#000" stroke-linecap="round" stroke-miterlimit="10" stroke-width="1.5"/>
      <path id="Path_149" data-name="Path 149" d="M302,258.422c0-23.47,26.25-11.59,26.25-11.971" transform="translate(432.75 -808.578)" fill="#fff" stroke="#000" stroke-linecap="round" stroke-miterlimit="10" stroke-width="1.5"/>
      <path id="Path_150" data-name="Path 150" d="M478.25,258.422c0-23.47-26.25-11.59-26.25-11.971" transform="translate(309 -808.578)" fill="#fff" stroke="#000" stroke-linecap="round" stroke-miterlimit="10" stroke-width="1.5"/>
      <path id="Path_151" data-name="Path 151" d="M302,261.859c0-22.283,26.25-11.877,26.25-12.259" transform="translate(432.75 -811.728)" fill="#fff" stroke="#000" stroke-linecap="round" stroke-miterlimit="10" stroke-width="1.5"/>
      <path id="Path_152" data-name="Path 152" d="M478.25,261.859c0-22.283-26.25-11.877-26.25-12.259" transform="translate(309 -811.728)" fill="#fff" stroke="#000" stroke-linecap="round" stroke-miterlimit="10" stroke-width="1.5"/>
      <path id="Path_153" data-name="Path 153" d="M302,265.607c0-20.829,26.25-12.165,26.25-12.546" transform="translate(432.75 -815.189)" fill="#fff" stroke="#000" stroke-linecap="round" stroke-miterlimit="10" stroke-width="1.5"/>
      <path id="Path_154" data-name="Path 154" d="M478.25,265.607c0-20.829-26.25-12.165-26.25-12.546" transform="translate(309 -815.189)" fill="#fff" stroke="#000" stroke-linecap="round" stroke-miterlimit="10" stroke-width="1.5"/>
      <path id="Path_155" data-name="Path 155" d="M302,269.453c0-19.106,26.25-12.452,26.25-12.833" transform="translate(432.75 -818.747)" fill="#fff" stroke="#000" stroke-linecap="round" stroke-miterlimit="10" stroke-width="1.5"/>
      <path id="Path_156" data-name="Path 156" d="M478.25,269.453C478.25,250.347,452,257,452,256.62" transform="translate(309 -818.747)" fill="#fff" stroke="#000" stroke-linecap="round" stroke-miterlimit="10" stroke-width="1.5"/>
      <path id="Path_157" data-name="Path 157" d="M302,272.953c0-17.116,26.25-12.739,26.25-13.121" transform="translate(432.75 -821.96)" fill="#fff" stroke="#000" stroke-linecap="round" stroke-miterlimit="10" stroke-width="1.5"/>
      <path id="Path_158" data-name="Path 158" d="M478.25,272.953c0-17.116-26.25-12.739-26.25-13.121" transform="translate(309 -821.96)" fill="#fff" stroke="#000" stroke-linecap="round" stroke-miterlimit="10" stroke-width="1.5"/>
      <path id="Path_159" data-name="Path 159" d="M302,274.533c0-14.857,26.25-13.027,26.25-13.408" transform="translate(432.75 -823.253)" fill="#fff" stroke="#000" stroke-linecap="round" stroke-miterlimit="10" stroke-width="1.5"/>
      <path id="Path_160" data-name="Path 160" d="M478.25,274.533c0-14.857-26.25-13.027-26.25-13.408" transform="translate(309 -823.253)" fill="#fff" stroke="#000" stroke-linecap="round" stroke-miterlimit="10" stroke-width="1.5"/>
      <path id="Path_161" data-name="Path 161" d="M302,274.82c0-12.331,26.25-13.314,26.25-13.7" transform="translate(432.75 -823.253)" fill="#fff" stroke="#000" stroke-linecap="round" stroke-miterlimit="10" stroke-width="1.5"/>
      <path id="Path_162" data-name="Path 162" d="M478.25,274.82c0-12.331-26.25-13.314-26.25-13.7" transform="translate(309 -823.253)" fill="#fff" stroke="#000" stroke-linecap="round" stroke-miterlimit="10" stroke-width="1.5"/>
      <path id="Path_163" data-name="Path 163" d="M302,275.108c0-9.536,26.25-13.6,26.25-13.983" transform="translate(432.75 -823.253)" fill="#fff" stroke="#000" stroke-linecap="round" stroke-miterlimit="10" stroke-width="1.5"/>
      <path id="Path_164" data-name="Path 164" d="M478.25,275.108c0-9.536-26.25-13.6-26.25-13.983" transform="translate(309 -823.253)" fill="#fff" stroke="#000" stroke-linecap="round" stroke-miterlimit="10" stroke-width="1.5"/>
      <path id="Path_165" data-name="Path 165" d="M302,275.4c0-6.474,26.25-13.889,26.25-14.27" transform="translate(432.75 -823.253)" fill="#fff" stroke="#000" stroke-linecap="round" stroke-miterlimit="10" stroke-width="1.5"/>
      <path id="Path_166" data-name="Path 166" d="M478.25,275.4c0-6.474-26.25-13.889-26.25-14.27" transform="translate(309 -823.253)" fill="#fff" stroke="#000" stroke-linecap="round" stroke-miterlimit="10" stroke-width="1.5"/>
      <path id="Path_167" data-name="Path 167" d="M302,275.682c0-3.144,26.25-14.176,26.25-14.558" transform="translate(432.75 -823.253)" fill="#fff" stroke="#000" stroke-linecap="round" stroke-miterlimit="10" stroke-width="1.5"/>
      <path id="Path_168" data-name="Path 168" d="M478.25,275.682c0-3.144-26.25-14.176-26.25-14.558" transform="translate(309 -823.253)" fill="#fff" stroke="#000" stroke-linecap="round" stroke-miterlimit="10" stroke-width="1.5"/>
      <path id="Path_169" data-name="Path 169" d="M302,275.97c0,.455,26.25-14.463,26.25-14.845" transform="translate(432.75 -823.253)" fill="#fff" stroke="#000" stroke-linecap="round" stroke-miterlimit="10" stroke-width="1.5"/>
      <path id="Path_170" data-name="Path 170" d="M478.25,275.97c0,.455-26.25-14.463-26.25-14.845" transform="translate(309 -823.253)" fill="#fff" stroke="#000" stroke-linecap="round" stroke-miterlimit="10" stroke-width="1.5"/>
      <path id="Path_171" data-name="Path 171" d="M302,276.257c0,4.321,26.25-14.751,26.25-15.132" transform="translate(432.75 -823.253)" fill="#fff" stroke="#000" stroke-linecap="round" stroke-miterlimit="10" stroke-width="1.5"/>
      <path id="Path_172" data-name="Path 172" d="M478.25,276.257c0,4.321-26.25-14.751-26.25-15.132" transform="translate(309 -823.253)" fill="#fff" stroke="#000" stroke-linecap="round" stroke-miterlimit="10" stroke-width="1.5"/>
    </g>
    <rect id="Rectangle_216" data-name="Rectangle 216" width="70" height="65" transform="translate(-208 -466)" fill="none"/>
  </g>
</svg>
