<svg xmlns="http://www.w3.org/2000/svg" width="72" height="65" viewBox="0 0 72 65">
  <g id="Group_898" data-name="Group 898" transform="translate(106 466)">
    <g id="Group_892" data-name="Group 892" transform="translate(-1039 111)">
      <path id="Path_15" data-name="Path 15" d="M260.161,197.937c2.208,4.649,4.667,12.088,1.268,18.1-7.924,14.009-45.17,14.455-52.09,0-2.251-4.7-2.252-10.736,1.269-18.1a32.782,32.782,0,0,1,24.776-11.515C236.887,186.422,251.1,186.652,260.161,197.937Z" transform="translate(733.934 -748.708)" fill="#fff"/>
      <path id="Path_81" data-name="Path 81" d="M252,237.042c0-4.165,3.918-7.542,8.75-7.542s8.75,3.377,8.75,7.542-3.918,7.542-8.75,7.542S252,241.207,252,237.042Z" transform="translate(682 -796.5)" fill="#fff" stroke="#000" stroke-linecap="round" stroke-miterlimit="10" stroke-width="2"/>
      <path id="Path_82" data-name="Path 82" d="M552,237.042c0-4.165,3.918-7.542,8.75-7.542s8.75,3.377,8.75,7.542-3.917,7.542-8.75,7.542S552,241.207,552,237.042Z" transform="translate(434.5 -796.5)" fill="#fff" stroke="#000" stroke-linecap="round" stroke-miterlimit="10" stroke-width="2"/>
      <path id="Path_83" data-name="Path 83" d="M289.5,268.885a2.212,2.212,0,1,1,2.188,1.886A2.053,2.053,0,0,1,289.5,268.885Z" transform="translate(651.063 -828.343)" fill="#fff" stroke="#000" stroke-linecap="round" stroke-miterlimit="10" stroke-width="2"/>
      <path id="Path_84" data-name="Path 84" d="M589.5,268.885a2.212,2.212,0,1,1,2.188,1.886A2.053,2.053,0,0,1,589.5,268.885Z" transform="translate(403.563 -828.343)" fill="#fff" stroke="#000" stroke-linecap="round" stroke-miterlimit="10" stroke-width="2"/>
      <path id="Path_85" data-name="Path 85" d="M252,237.042c0-4.165,3.918-7.542,8.75-7.542s8.75,3.377,8.75,7.542-3.918,7.542-8.75,7.542S252,241.207,252,237.042Z" transform="translate(682 -796.5)" fill="#fff" stroke="#000" stroke-linecap="round" stroke-miterlimit="10" stroke-width="2"/>
      <path id="Path_86" data-name="Path 86" d="M552,237.042c0-4.165,3.918-7.542,8.75-7.542s8.75,3.377,8.75,7.542-3.917,7.542-8.75,7.542S552,241.207,552,237.042Z" transform="translate(434.5 -796.5)" fill="#fff" stroke="#000" stroke-linecap="round" stroke-miterlimit="10" stroke-width="2"/>
      <path id="Path_87" data-name="Path 87" d="M302,248.368c0-24.851,26.25-9.94,26.25-10.314" transform="translate(640.75 -800.284)" fill="#fff" stroke="#000" stroke-linecap="round" stroke-miterlimit="10" stroke-width="2"/>
      <path id="Path_88" data-name="Path 88" d="M478.25,248.368c0-24.851-26.25-9.94-26.25-10.314" transform="translate(517 -800.284)" fill="#fff" stroke="#000" stroke-linecap="round" stroke-miterlimit="10" stroke-width="2"/>
      <path id="Path_89" data-name="Path 89" d="M302,259.315c0-22.588,26.25-11.449,26.25-11.822" transform="translate(640.75 -809.722)" fill="#fff" stroke="#000" stroke-linecap="round" stroke-miterlimit="10" stroke-width="2"/>
      <path id="Path_90" data-name="Path 90" d="M478.25,259.315c0-22.588-26.25-11.449-26.25-11.822" transform="translate(517 -809.722)" fill="#fff" stroke="#000" stroke-linecap="round" stroke-miterlimit="10" stroke-width="2"/>
      <path id="Path_91" data-name="Path 91" d="M302,274.456c0-12.784,26.25-12.957,26.25-13.331" transform="translate(640.75 -823.355)" fill="#fff" stroke="#000" stroke-linecap="round" stroke-miterlimit="10" stroke-width="2"/>
      <path id="Path_92" data-name="Path 92" d="M478.25,274.456c0-12.784-26.25-12.957-26.25-13.331" transform="translate(517 -823.355)" fill="#fff" stroke="#000" stroke-linecap="round" stroke-miterlimit="10" stroke-width="2"/>
      <path id="Path_93" data-name="Path 93" d="M302,275.964c0,4.563,26.25-14.466,26.25-14.839" transform="translate(640.75 -823.355)" fill="#fff" stroke="#000" stroke-linecap="round" stroke-miterlimit="10" stroke-width="2"/>
      <path id="Path_94" data-name="Path 94" d="M478.25,275.964c0,4.563-26.25-14.466-26.25-14.839" transform="translate(517 -823.355)" fill="#fff" stroke="#000" stroke-linecap="round" stroke-miterlimit="10" stroke-width="2"/>
    </g>
    <rect id="Rectangle_217" data-name="Rectangle 217" width="70" height="65" transform="translate(-105 -466)" fill="none"/>
  </g>
</svg>
