<svg xmlns="http://www.w3.org/2000/svg" width="70" height="65" viewBox="0 0 70 65">
  <g id="Group_893" data-name="Group 893" transform="translate(345 391)">
    <rect id="Rectangle_213" data-name="Rectangle 213" width="70" height="65" transform="translate(-345 -391)" fill="#f2e7e7" opacity="0"/>
    <path id="Path_66" data-name="Path 66" d="M292.409,264.373c21.757,44.987-42.643,44.987-20.886,0C278.747,249.36,285.186,249.36,292.409,264.373Z" transform="translate(-591.966 -634.114)" fill="#fff"/>
    <g id="Group_24" data-name="Group 24" transform="translate(-289.387 -359)">
      <line id="Line_1" data-name="Line 1" x2="5.222" transform="translate(0 5.624)" fill="none" stroke="#000" stroke-linecap="round" stroke-width="2"/>
      <g id="Polygon_1" data-name="Polygon 1" transform="translate(12.051) rotate(90)">
        <path d="M 9.128422737121582 5.828780651092529 L 2.118983030319214 5.828780651092529 C 2.118985176086426 5.828777313232422 2.11898398399353 5.828774452209473 2.118982315063477 5.828771114349365 C 2.118982553482056 5.828771114349365 2.118982791900635 5.828770637512207 2.118983030319214 5.828770637512207 L 5.623703002929688 1.573050618171692 L 9.128422737121582 5.828780651092529 C 9.128419876098633 5.828778743743896 9.128419876098633 5.828779697418213 9.128418922424316 5.828780651092529 L 9.128422737121582 5.828780651092529 Z" stroke="none"/>
        <path d="M 5.623702049255371 3.146097660064697 L 4.237966537475586 4.828780651092529 L 7.009443759918213 4.828780651092529 L 5.623702049255371 3.146097660064697 M 5.623703002929688 0.5730504989624023 C 5.909665584564209 0.5730504989624023 6.19562816619873 0.6944804191589355 6.395633220672607 0.9373407363891602 L 9.900352478027344 5.193070411682129 C 10.43760299682617 5.845450401306152 9.973543167114258 6.828780651092529 9.128422737121582 6.828780651092529 L 2.118983268737793 6.828780651092529 C 1.273862838745117 6.828780651092529 0.8098030090332031 5.845450401306152 1.347052574157715 5.193070411682129 L 4.851772785186768 0.9373407363891602 C 5.051777839660645 0.6944804191589355 5.337740421295166 0.5730504989624023 5.623703002929688 0.5730504989624023 Z" stroke="none"/>
      </g>
    </g>
    <g id="Group_24-2" data-name="Group 24" transform="translate(-343 -359)">
      <line id="Line_1-2" data-name="Line 1" x2="5.222" transform="translate(0 5.624)" fill="none" stroke="#000" stroke-linecap="round" stroke-width="2"/>
      <g id="Polygon_1-2" data-name="Polygon 1" transform="translate(12.051) rotate(90)">
        <path d="M 9.12840747833252 5.82877779006958 L 2.118987798690796 5.82877779006958 C 2.118992567062378 5.828776359558105 2.11899209022522 5.828774929046631 2.118991374969482 5.828773498535156 L 5.623697757720947 1.573057770729065 L 9.12841796875 5.82877779006958 C 9.128403663635254 5.828768730163574 9.128401756286621 5.828773021697998 9.128399848937988 5.82877779006958 L 9.12840747833252 5.82877779006958 Z" stroke="none"/>
        <path d="M 5.623701095581055 3.146105289459229 L 4.237967967987061 4.82877779006958 L 7.009431838989258 4.82877779006958 L 5.623701095581055 3.146105289459229 M 5.623697757720947 0.5730500221252441 C 5.909660339355469 0.5730500221252441 6.19562292098999 0.6944828033447266 6.395627975463867 0.9373478889465332 L 9.900347709655762 5.19306755065918 C 10.43758773803711 5.845438003540039 9.973527908325195 6.82877779006958 9.12840747833252 6.82877779006958 L 2.118988037109375 6.82877779006958 C 1.273867607116699 6.82877779006958 0.8098077774047852 5.845438003540039 1.347047805786133 5.19306755065918 L 4.851767539978027 0.9373478889465332 C 5.051772594451904 0.6944828033447266 5.337735176086426 0.5730500221252441 5.623697757720947 0.5730500221252441 Z" stroke="none"/>
      </g>
    </g>
  </g>
</svg>
