<svg xmlns="http://www.w3.org/2000/svg" width="70" height="65" viewBox="0 0 70 65">
  <g id="Group_885" data-name="Group 885" transform="translate(308 -354)">
    <rect id="Rectangle_212" data-name="Rectangle 212" width="70" height="65" transform="translate(-308 354)" fill="#f2e7e7" opacity="0"/>
    <g id="Group_874" data-name="Group 874" transform="translate(4 -76)">
      <path id="Path_67" data-name="Path 67" d="M69.189,242.83c-15.735,44.017-14.265,44.069-30,.052,2.682-7.023,8.175-11.652,14.265-11.993C60.04,230.52,66.25,235.225,69.189,242.83Z" transform="translate(-331.189 209.131)" fill="#fff"/>
      <g id="Group_25" data-name="Group 25" transform="translate(-256.387 462)">
        <g id="Group_24" data-name="Group 24" transform="translate(0)">
          <line id="Line_1" data-name="Line 1" x1="5.222" transform="translate(6.829 5.624)" fill="none" stroke="#000" stroke-linecap="round" stroke-width="2"/>
          <g id="Polygon_1" data-name="Polygon 1" transform="translate(0 11.247) rotate(-90)">
            <path d="M 9.128426551818848 5.82878303527832 L 2.118986845016479 5.82878303527832 L 5.623706817626953 1.573053002357483 L 9.128426551818848 5.828793048858643 L 9.128426551818848 5.82878303527832 Z" stroke="none"/>
            <path d="M 5.623705863952637 3.146101951599121 L 4.237974643707275 4.82878303527832 L 7.009442329406738 4.82878303527832 L 5.623705863952637 3.146101951599121 M 5.623706817626953 0.5730528831481934 C 5.909669399261475 0.5730528831481934 6.195631980895996 0.6944828033447266 6.395637035369873 0.9373431205749512 L 9.900356292724609 5.193082809448242 C 10.43760681152344 5.845453262329102 9.973546981811523 6.82878303527832 9.128426551818848 6.82878303527832 L 2.118987083435059 6.82878303527832 C 1.273866653442383 6.82878303527832 0.8098068237304688 5.845453262329102 1.34705638885498 5.193082809448242 L 4.851776599884033 0.9373431205749512 C 5.05178165435791 0.6944828033447266 5.337744235992432 0.5730528831481934 5.623706817626953 0.5730528831481934 Z" stroke="none"/>
          </g>
        </g>
      </g>
      <g id="Group_26" data-name="Group 26" transform="translate(-310 462)">
        <g id="Group_24-2" data-name="Group 24">
          <line id="Line_1-2" data-name="Line 1" x2="5.222" transform="translate(0 5.624)" fill="none" stroke="#000" stroke-linecap="round" stroke-width="2"/>
          <g id="Polygon_1-2" data-name="Polygon 1" transform="translate(12.051) rotate(90)">
            <path d="M 9.128422737121582 5.828781127929688 L 2.118983030319214 5.828781127929688 C 2.118985176086426 5.82877779006958 2.11898398399353 5.828774929046631 2.118982315063477 5.828771591186523 C 2.118982553482056 5.828771591186523 2.118982791900635 5.828771114349365 2.118983030319214 5.828771114349365 L 5.623703002929688 1.57305109500885 L 9.128422737121582 5.828781127929688 C 9.128419876098633 5.828779220581055 9.128419876098633 5.828780174255371 9.128418922424316 5.828781127929688 L 9.128422737121582 5.828781127929688 Z" stroke="none"/>
            <path d="M 5.623702049255371 3.146098136901855 L 4.237966537475586 4.828781127929688 L 7.009443759918213 4.828781127929688 L 5.623702049255371 3.146098136901855 M 5.623703002929688 0.5730509757995605 C 5.909665584564209 0.5730509757995605 6.19562816619873 0.6944808959960938 6.395633220672607 0.9373412132263184 L 9.900352478027344 5.193071365356445 C 10.43760299682617 5.845451354980469 9.973543167114258 6.828781127929688 9.128422737121582 6.828781127929688 L 2.118983268737793 6.828781127929688 C 1.273862838745117 6.828781127929688 0.8098030090332031 5.845451354980469 1.347052574157715 5.193071365356445 L 4.851772785186768 0.9373412132263184 C 5.051777839660645 0.6944808959960938 5.337740421295166 0.5730509757995605 5.623703002929688 0.5730509757995605 Z" stroke="none"/>
          </g>
        </g>
      </g>
    </g>
  </g>
</svg>
