<svg xmlns="http://www.w3.org/2000/svg" viewBox="0 0 70 65"><defs><style>.cls-1{fill:#f2e7e7;fill-opacity:0;}.cls-2{fill:#fff;}.cls-2,.cls-3,.cls-4{stroke:#000;}.cls-2,.cls-4{stroke-miterlimit:10;}.cls-2,.cls-3{stroke-width:2px;}.cls-3{fill:none;stroke-linecap:round;}</style></defs><g id="Layer_2" data-name="Layer 2"><g id="Layer_1-2" data-name="Layer 1"><rect id="Rectangle_212" data-name="Rectangle 212" class="cls-1" width="70" height="65"/><path id="Path_67" data-name="Path 67" class="cls-2" d="M50,22C34.27,66,35.74,66,20,22c2.68-7,8.18-11.65,14.27-12C40.85,9.65,47.06,14.36,50,22Z"/><g id="Group_25-2" data-name="Group 25-2"><g id="Group_24-5" data-name="Group 24-5"><line id="Line_1-5" data-name="Line 1-5" class="cls-3" x1="67.66" y1="37.62" x2="62.44" y2="37.62"/><g id="Polygon_1-5" data-name="Polygon 1-5"><path class="cls-4" d="M61.44,34.12v7l-4.25-3.51,4.25-3.5Z"/><path class="cls-4" d="M58.76,37.62,60.44,39V36.24l-1.68,1.38m-2.57,0a1,1,0,0,1,.36-.77l4.26-3.5a1,1,0,0,1,1.63.77v7a1,1,0,0,1-1.63.77l-4.26-3.5A1,1,0,0,1,56.19,37.62Z"/></g></g></g><g id="Group_26-2" data-name="Group 26-2"><g id="Group_24-6" data-name="Group 24-6"><line id="Line_1-6" data-name="Line 1-6" class="cls-3" x1="2" y1="37.62" x2="7.22" y2="37.62"/><g id="Polygon_1-6" data-name="Polygon 1-6"><path class="cls-4" d="M8.22,41.13v-7h0l4.26,3.5L8.22,41.13Z"/><path class="cls-4" d="M10.9,37.62,9.22,36.24V39l1.68-1.39m2.58,0a1,1,0,0,1-.37.78L8.86,41.9a1,1,0,0,1-1.64-.77v-7a1,1,0,0,1,1.64-.77l4.25,3.5A1,1,0,0,1,13.48,37.62Z"/></g></g></g></g></g></svg>