<svg xmlns="http://www.w3.org/2000/svg" viewBox="0 0 70 65"><defs><style>.cls-1{fill:#f2e7e7;fill-opacity:0;}.cls-2{fill:#fff;}.cls-2,.cls-3,.cls-4{stroke:#000;}.cls-2,.cls-4{stroke-miterlimit:10;}.cls-2,.cls-3{stroke-width:2px;}.cls-3{fill:none;stroke-linecap:round;}</style></defs><g id="Layer_2" data-name="Layer 2"><g id="Layer_1-2" data-name="Layer 1"><rect id="Rectangle_213" data-name="Rectangle 213" class="cls-1" width="70" height="65"/><path id="Path_66" data-name="Path 66" class="cls-2" d="M45.44,21.26c21.76,45-42.64,45-20.88,0C31.78,6.25,38.22,6.25,45.44,21.26Z"/><g id="Group_25-3" data-name="Group 25-3"><g id="Group_24-7" data-name="Group 24-7"><line id="Line_1-7" data-name="Line 1-7" class="cls-3" x1="56.19" y1="37.62" x2="61.41" y2="37.62"/><g id="Polygon_1-7" data-name="Polygon 1-7"><path class="cls-4" d="M62.41,34.12v7l4.25-3.51-4.25-3.5Z"/><path class="cls-4" d="M65.09,37.62,63.41,39V36.24l1.68,1.38m2.57,0a1,1,0,0,0-.36-.77L63,33.35a1,1,0,0,0-1.63.77v7A1,1,0,0,0,63,41.9l4.26-3.5A1,1,0,0,0,67.66,37.62Z"/></g></g></g><g id="Group_26-3" data-name="Group 26-3"><g id="Group_24-8" data-name="Group 24-8"><line id="Line_1-8" data-name="Line 1-8" class="cls-3" x1="13.48" y1="37.62" x2="8.26" y2="37.62"/><g id="Polygon_1-8" data-name="Polygon 1-8"><path class="cls-4" d="M7.26,41.13v-7h0L3,37.62l4.26,3.51Z"/><path class="cls-4" d="M4.57,37.62l1.69-1.38V39L4.57,37.62M2,37.62a1,1,0,0,0,.36.78l4.26,3.5a1,1,0,0,0,1.64-.77v-7a1,1,0,0,0-1.64-.77l-4.26,3.5A1,1,0,0,0,2,37.62Z"/></g></g></g></g></g></svg>