<svg xmlns="http://www.w3.org/2000/svg" viewBox="0 0 70 65"><defs><style>.cls-1{fill:#f2e7e7;fill-opacity:0;}.cls-2{fill:#fff;}.cls-2,.cls-3,.cls-4{stroke:#000;}.cls-2,.cls-4{stroke-miterlimit:10;}.cls-2,.cls-3{stroke-width:2px;}.cls-3{fill:none;stroke-linecap:round;}</style></defs><g id="Layer_2" data-name="Layer 2"><g id="Layer_1-2" data-name="Layer 1"><rect id="Rectangle_215" data-name="Rectangle 215" class="cls-1" width="70" height="65"/><path id="Path_69-2" data-name="Path 69-2" class="cls-2" d="M50,13.16C49.24,27.63,40.32,37,34.07,36.84S20.24,27.2,20,13.56A21.85,21.85,0,0,1,34.07,7.75,22.71,22.71,0,0,1,50,13.16Z"/><g id="Group_869" data-name="Group 869"><g id="Group_24-10" data-name="Group 24-10"><line id="Line_1-10" data-name="Line 1-10" class="cls-3" x1="34.62" y1="42.95" x2="34.62" y2="48.17"/><g id="Polygon_1-10" data-name="Polygon 1-10"><path class="cls-4" d="M31.12,49.17h7l-3.51,4.26-3.5-4.26Z"/><path class="cls-4" d="M34.62,51.85,36,50.17H33.24l1.38,1.68m0,2.58a1,1,0,0,1-.77-.37l-3.5-4.25a1,1,0,0,1,.77-1.64h7a1,1,0,0,1,.77,1.64l-3.5,4.25A1,1,0,0,1,34.62,54.43Z"/></g></g></g></g></g></svg>