<svg xmlns="http://www.w3.org/2000/svg" width="70" height="65" viewBox="0 0 70 65">
  <g id="Group_882" data-name="Group 882" transform="translate(322 -529)">
    <rect id="Rectangle_214" data-name="Rectangle 214" width="70" height="65" transform="translate(-322 529)" fill="#f2e7e7" opacity="0"/>
    <g id="Group_876" data-name="Group 876" transform="translate(-10 -10)">
      <path id="Path_69" data-name="Path 69" d="M119.08,137.377c-.76,9.934-9.678,16.386-15.934,16.261-6.118-.123-13.831-6.619-14.066-15.986.815-.547,5.715-3.725,14.066-3.994C112.454,133.357,118.344,136.917,119.08,137.377Z" transform="translate(-381.08 415.361)" fill="#fff"/>
      <g id="Group_868" data-name="Group 868" transform="translate(-282.598 594.001) rotate(-90)">
        <g id="Group_24" data-name="Group 24">
          <line id="Line_1" data-name="Line 1" x2="5.222" transform="translate(0 5.624)" fill="none" stroke="#000" stroke-linecap="round" stroke-width="2"/>
          <g id="Polygon_1" data-name="Polygon 1" transform="translate(12.051) rotate(90)">
            <path d="M 9.128422737121582 5.828777313232422 L 2.118982553482056 5.828777313232422 C 2.118987321853638 5.828775882720947 2.118986845016479 5.828774929046631 2.118986129760742 5.828773021697998 L 5.623702526092529 1.573057532310486 L 9.128422737121582 5.828777313232422 C 9.12841796875 5.828774929046631 9.12841796875 5.828775882720947 9.128417015075684 5.828777313232422 L 9.128422737121582 5.828777313232422 Z" stroke="none"/>
            <path d="M 5.623701572418213 3.14609432220459 L 4.237965106964111 4.828777313232422 L 7.009443283081055 4.828777313232422 L 5.623701572418213 3.14609432220459 M 5.623702526092529 0.5730476379394531 C 5.909665107727051 0.5730476379394531 6.195627689361572 0.6944775581359863 6.395632743835449 0.9373373985290527 L 9.900352478027344 5.19306755065918 C 10.43760299682617 5.845437526702881 9.973542213439941 6.828777313232422 9.128422737121582 6.828777313232422 L 2.118982315063477 6.828777313232422 C 1.273862838745117 6.828777313232422 0.8098020553588867 5.845437526702881 1.347052574157715 5.19306755065918 L 4.851772308349609 0.9373373985290527 C 5.051777362823486 0.6944775581359863 5.337739944458008 0.5730476379394531 5.623702526092529 0.5730476379394531 Z" stroke="none"/>
          </g>
        </g>
      </g>
    </g>
  </g>
</svg>
