<svg xmlns="http://www.w3.org/2000/svg" viewBox="0 0 70 65"><defs><style>.cls-1{fill:#f2e7e7;fill-opacity:0;}.cls-2{fill:#fff;}.cls-2,.cls-3,.cls-4{stroke:#000;stroke-miterlimit:10;stroke-width:2px;}.cls-3{fill:none;}</style></defs><g id="Layer_2" data-name="Layer 2"><g id="Layer_1-2" data-name="Layer 1"><rect id="Rectangle_214" data-name="Rectangle 214" class="cls-1" width="70" height="65"/><path id="Path_69" data-name="Path 69" class="cls-2" d="M50,16C49.24,26,40.32,32.4,34.07,32.28S20.24,25.66,20,16.29c.82-.54,5.72-3.72,14.07-4C43.37,12,49.26,15.56,50,16Z"/><g id="Group_868" data-name="Group 868"><g id="Group_24-9" data-name="Group 24-9"><line id="Line_1-9" data-name="Line 1-9" class="cls-3" x1="35.03" y1="55" x2="35.03" y2="49.78"/><g id="Polygon_1-9" data-name="Polygon 1-9"><path class="cls-4" d="M38.53,48.78h-7L35,44.52l3.5,4.26Z"/><path class="cls-4" d="M35,46.1l-1.39,1.68h2.77L35,46.1m0-2.58a1,1,0,0,1,.77.37l3.5,4.25a1,1,0,0,1-.77,1.64h-7a1,1,0,0,1-.77-1.64l3.5-4.25A1,1,0,0,1,35,43.52Z"/></g></g></g></g></g></svg>