<svg xmlns="http://www.w3.org/2000/svg" viewBox="0 0 70 65"><defs><style>.cls-1,.cls-3{fill:none;}.cls-2{fill:#fff;}.cls-2,.cls-3,.cls-4{stroke:#000;}.cls-2,.cls-4{stroke-miterlimit:10;}.cls-2,.cls-3{stroke-width:2px;}.cls-3{stroke-linecap:round;}</style></defs><g id="Layer_2" data-name="Layer 2"><g id="Layer_1-2" data-name="Layer 1"><rect id="Rectangle_211" data-name="Rectangle 211" class="cls-1" width="70" height="65"/><path id="Path_65" data-name="Path 65" class="cls-2" d="M49.84,21.14C51.27,39.86,43.09,55.24,34.75,55c-8.08-.23-15.82-15.1-14.63-33.23C21,20,26.23,10.3,34.75,10,43.44,9.7,48.93,19.48,49.84,21.14Z"/><g id="Group_861" data-name="Group 861"><g id="Group_24-3" data-name="Group 24-3"><line id="Line_1-3" data-name="Line 1-3" class="cls-3" x1="55.61" y1="25.62" x2="60.84" y2="25.62"/><g id="Polygon_1-3" data-name="Polygon 1-3"><path class="cls-4" d="M61.84,29.13v-7h0l4.25,3.5-4.25,3.51Z"/><path class="cls-4" d="M64.52,25.62l-1.68-1.38V27l1.68-1.39m2.57,0a1,1,0,0,1-.36.78l-4.26,3.5a1,1,0,0,1-1.63-.77v-7a1,1,0,0,1,1.63-.77l4.26,3.5A1,1,0,0,1,67.09,25.62Z"/></g></g></g><g id="Group_862" data-name="Group 862"><g id="Group_24-4" data-name="Group 24-4"><line id="Line_1-4" data-name="Line 1-4" class="cls-3" x1="14.05" y1="25.62" x2="8.83" y2="25.62"/><g id="Polygon_1-4" data-name="Polygon 1-4"><path class="cls-4" d="M7.83,22.12v7h0L3.57,25.62l4.26-3.5Z"/><path class="cls-4" d="M5.15,25.62,6.83,27V24.24L5.15,25.62m-2.58,0a1,1,0,0,1,.37-.77l4.25-3.5a1,1,0,0,1,1.64.77v7a1,1,0,0,1-1.64.77L2.94,26.4A1,1,0,0,1,2.57,25.62Z"/></g></g></g></g></g></svg>