<svg xmlns="http://www.w3.org/2000/svg" width="70" height="65" viewBox="0 0 70 65">
  <g id="Group_879" data-name="Group 879" transform="translate(211 -321)">
    <rect id="Rectangle_211" data-name="Rectangle 211" width="70" height="65" transform="translate(-211 321)" fill="none"/>
    <g id="Group_877" data-name="Group 877" transform="translate(-6 -1)">
      <path id="Path_65" data-name="Path 65" d="M319.127,78.487c1.432,18.715-6.744,34.095-15.088,33.856-8.082-.231-15.818-15.1-14.625-33.223.9-1.73,6.11-11.47,14.625-11.767C312.736,67.049,318.226,76.827,319.127,78.487Z" transform="translate(-474.292 264.654)" fill="#fff"/>
      <g id="Group_861" data-name="Group 861" transform="translate(-149.387 342)">
        <g id="Group_24" data-name="Group 24" transform="translate(0)">
          <line id="Line_1" data-name="Line 1" x2="5.222" transform="translate(0 5.624)" fill="none" stroke="#000" stroke-linecap="round" stroke-width="2"/>
          <g id="Polygon_1" data-name="Polygon 1" transform="translate(12.051) rotate(90)">
            <path d="M 9.128422737121582 5.828780651092529 L 2.118983030319214 5.828780651092529 C 2.118985176086426 5.828777313232422 2.11898398399353 5.828774452209473 2.118982315063477 5.828771114349365 C 2.118982553482056 5.828771114349365 2.118982791900635 5.828770637512207 2.118983030319214 5.828770637512207 L 5.623703002929688 1.573050618171692 L 9.128422737121582 5.828780651092529 C 9.128419876098633 5.828778743743896 9.128419876098633 5.828779697418213 9.128418922424316 5.828780651092529 L 9.128422737121582 5.828780651092529 Z" stroke="none"/>
            <path d="M 5.623702049255371 3.146097660064697 L 4.237966537475586 4.828780651092529 L 7.009443759918213 4.828780651092529 L 5.623702049255371 3.146097660064697 M 5.623703002929688 0.5730504989624023 C 5.909665584564209 0.5730504989624023 6.19562816619873 0.6944804191589355 6.395633220672607 0.9373407363891602 L 9.900352478027344 5.193070411682129 C 10.43760299682617 5.845450401306152 9.973543167114258 6.828780651092529 9.128422737121582 6.828780651092529 L 2.118983268737793 6.828780651092529 C 1.273862838745117 6.828780651092529 0.8098030090332031 5.845450401306152 1.347052574157715 5.193070411682129 L 4.851772785186768 0.9373407363891602 C 5.051777839660645 0.6944804191589355 5.337740421295166 0.5730504989624023 5.623703002929688 0.5730504989624023 Z" stroke="none"/>
          </g>
        </g>
      </g>
      <g id="Group_862" data-name="Group 862" transform="translate(-203 342)">
        <g id="Group_24-2" data-name="Group 24" transform="translate(0)">
          <line id="Line_1-2" data-name="Line 1" x1="5.222" transform="translate(6.829 5.624)" fill="none" stroke="#000" stroke-linecap="round" stroke-width="2"/>
          <g id="Polygon_1-2" data-name="Polygon 1" transform="translate(0 11.247) rotate(-90)">
            <path d="M 9.128422737121582 5.828781127929688 L 2.118983030319214 5.828781127929688 C 2.118985176086426 5.82877779006958 2.11898398399353 5.828774929046631 2.118982315063477 5.828771591186523 C 2.118982553482056 5.828771591186523 2.118982791900635 5.828771114349365 2.118983030319214 5.828771114349365 L 5.623703002929688 1.57305109500885 L 9.128422737121582 5.828781127929688 C 9.128419876098633 5.828779220581055 9.128419876098633 5.828780174255371 9.128418922424316 5.828781127929688 L 9.128422737121582 5.828781127929688 Z" stroke="none"/>
            <path d="M 5.623702049255371 3.146098136901855 L 4.237966537475586 4.828781127929688 L 7.009443759918213 4.828781127929688 L 5.623702049255371 3.146098136901855 M 5.623703002929688 0.5730509757995605 C 5.909665584564209 0.5730509757995605 6.19562816619873 0.6944808959960938 6.395633220672607 0.9373412132263184 L 9.900352478027344 5.193071365356445 C 10.43760299682617 5.845451354980469 9.973543167114258 6.828781127929688 9.128422737121582 6.828781127929688 L 2.118983268737793 6.828781127929688 C 1.273862838745117 6.828781127929688 0.8098030090332031 5.845451354980469 1.347052574157715 5.193071365356445 L 4.851772785186768 0.9373412132263184 C 5.051777839660645 0.6944808959960938 5.337740421295166 0.5730509757995605 5.623703002929688 0.5730509757995605 Z" stroke="none"/>
          </g>
        </g>
      </g>
    </g>
  </g>
</svg>
