<svg xmlns="http://www.w3.org/2000/svg" viewBox="0 0 70 65"><defs><style>.cls-1,.cls-3{fill:none;}.cls-2{fill:#fff;}.cls-2,.cls-3,.cls-4{stroke:#000;}.cls-2,.cls-4{stroke-miterlimit:10;}.cls-2,.cls-3{stroke-width:2px;}.cls-3{stroke-linecap:round;}</style></defs><g id="Layer_2" data-name="Layer 2"><g id="Layer_1-2" data-name="Layer 1"><rect id="Rectangle_210" data-name="Rectangle 210" class="cls-1" width="70" height="65"/><g id="Group_52" data-name="Group 52"><path id="Path_64" data-name="Path 64" class="cls-2" d="M43.49,21.26c28,45-44.95,45-17,0C31.35,6.25,38.65,6.25,43.49,21.26Z"/></g><g id="Group_863" data-name="Group 863"><g id="Group_25" data-name="Group 25"><g id="Group_24" data-name="Group 24"><line id="Line_1" data-name="Line 1" class="cls-3" x1="67.66" y1="25.62" x2="62.44" y2="25.62"/><g id="Polygon_1" data-name="Polygon 1"><path class="cls-4" d="M61.44,22.12v7l-4.25-3.51,4.25-3.5Z"/><path class="cls-4" d="M58.76,25.62,60.44,27V24.24l-1.68,1.38m-2.57,0a1,1,0,0,1,.36-.77l4.26-3.5a1,1,0,0,1,1.63.77v7a1,1,0,0,1-1.63.77l-4.26-3.5A1,1,0,0,1,56.19,25.62Z"/></g></g></g><g id="Group_26" data-name="Group 26"><g id="Group_24-2" data-name="Group 24-2"><line id="Line_1-2" data-name="Line 1-2" class="cls-3" x1="2" y1="25.62" x2="7.22" y2="25.62"/><g id="Polygon_1-2" data-name="Polygon 1-2"><path class="cls-4" d="M8.22,29.13v-7h0l4.26,3.5L8.22,29.13Z"/><path class="cls-4" d="M10.9,25.62,9.22,24.24V27l1.68-1.39m2.58,0a1,1,0,0,1-.37.78L8.86,29.9a1,1,0,0,1-1.64-.77v-7a1,1,0,0,1,1.64-.77l4.25,3.5A1,1,0,0,1,13.48,25.62Z"/></g></g></g></g></g></g></svg>